<?xml version="1.0" encoding="utf-8"?>
<!-- Generator: Adobe Illustrator 26.3.1, SVG Export Plug-In . SVG Version: 6.00 Build 0)  -->
<svg version="1.1" id="Calque_1" xmlns="http://www.w3.org/2000/svg" xmlns:xlink="http://www.w3.org/1999/xlink" x="0px" y="0px"
	 viewBox="0 0 50 50" style="enable-background:new 0 0 50 50;" xml:space="preserve">
<style type="text/css">
	.st0{fill:none;}
</style>
<path d="M37.6,30c0,0-0.1,0.1-0.1,0.1C37.5,30.1,37.5,30.1,37.6,30z"/>
<polygon points="37.6,30 37.6,30 37.6,30 "/>
<path d="M43.2,28.8C43.2,28.8,43.2,28.8,43.2,28.8C43.2,28.8,43.2,28.8,43.2,28.8z"/>
<path d="M43.2,28.8C43.2,28.7,43.2,28.7,43.2,28.8C43.2,28.7,43.2,28.7,43.2,28.8z"/>
<path d="M43.2,28.8C43.2,28.8,43.2,28.8,43.2,28.8C43.2,28.8,43.2,28.8,43.2,28.8z"/>
<path class="st0" d="M32.3,2.7c0.4-0.5,0.8-1.2,0.6-1.9c-0.8,0-1.7,0.1-2.5,0.3c-2.8,0.9-4.9,3.6-5.4,6.7c1.1-0.8,2.4-1.4,3.8-1.7
	c0.6-0.5,1.2-1,1.8-1.6C31.2,4.1,31.8,3.4,32.3,2.7z"/>
<path class="st0" d="M23.6,4.4c-0.2-0.1-0.4,0-0.5,0c-0.2,0.1-0.3,0.3-0.3,0.6c0,0.9,0.1,1.8,0.1,2.7c0,0.2,0,0.4,0,0.7
	c0.1,0.1,0.3,0.2,0.4,0.3c0.1,0.1,0.3,0.2,0.6,0.3c0.1-0.1,0.2-0.2,0.3-0.3c0-0.8,0-1.7,0-2.5C24.1,5.7,24.1,4.7,23.6,4.4z"/>
<path class="st0" d="M36.2,34.8c0-0.1,0-0.1,0.1-0.2c-0.1,0.2-0.2,0.4-0.4,0.6C36,35.1,36.1,35,36.2,34.8z"/>
<path class="st1" d="M42.9,14c-0.6-1.5-1.5-2.8-2.6-3.9C40,9.5,39.5,8.8,39,8.3c-1.6-1.6-3.7-2.2-5.8-2.4c-0.9-0.1-1.8-0.1-2.8,0.1
	c0.3-0.2,0.5-0.5,0.8-0.7c0.6-0.6,1.2-1.2,1.7-1.9c0.5-0.7,0.9-1.5,0.8-2.4c0-0.2-0.1-0.4-0.2-0.6C33.4,0,33.2,0,33,0
	c-0.4,0-0.8,0-1.2,0c-0.8,0.1-1.6,0.3-2.3,0.6c-1.5,0.7-2.7,1.7-3.7,3.1c-0.4,0.6-0.7,1.2-1,1.9c-0.1-0.7-0.2-1.5-0.8-1.9
	c-0.5-0.4-1.3-0.2-1.7,0.3c-0.3,0.3-0.3,0.7-0.3,1.2c0,0.5,0,1.1,0.1,1.6l0,1.1c-0.5-0.3-0.9-0.5-1.4-0.7C19,6.5,17,6.3,15.1,6.7
	c-3.6,0.7-6.6,4.4-8.5,7.8c-2.1,3.8-2.7,8.4-1.6,12.7C6.2,31.4,8.7,35,11.4,38c1.5,1.7,3.2,2.8,5.3,3.1c0.1,0,0.3,0,0.4,0.1l7.9,8.8
	l6.8-7.9c0.4,0,0.8,0,1.1,0c4-0.3,7.2-3.3,8.7-7.3c0-0.1,0-0.1,0.1-0.2C44.7,28.4,45.5,20.4,42.9,14z M30.4,1.2
	c0.8-0.3,1.6-0.4,2.5-0.3c0.2,0.7-0.2,1.4-0.6,1.9c-0.5,0.7-1.1,1.3-1.7,1.9c-0.6,0.6-1.2,1.1-1.8,1.6c-1.4,0.3-2.7,0.9-3.8,1.7
	C25.5,4.8,27.6,2.1,30.4,1.2z M23.1,4.5c0.2-0.1,0.4-0.1,0.5,0c0.5,0.2,0.5,1.3,0.5,1.8c0.1,0.8,0.1,1.7,0,2.5
	C24.1,8.8,24,8.9,23.9,9c-0.2-0.1-0.5-0.3-0.6-0.3c-0.1-0.1-0.2-0.2-0.4-0.3c0-0.2,0-0.4,0-0.7c0-0.9-0.1-1.8-0.1-2.7
	C22.8,4.8,22.9,4.6,23.1,4.5z M36.2,34.8c-0.1,0.1-0.2,0.3-0.3,0.4c0.1-0.2,0.3-0.4,0.4-0.6C36.3,34.7,36.3,34.8,36.2,34.8z"/>
</svg>
