<?xml version="1.0" encoding="utf-8"?>
<!-- Generator: Adobe Illustrator 26.3.1, SVG Export Plug-In . SVG Version: 6.00 Build 0)  -->
<svg version="1.1" id="Calque_1" xmlns="http://www.w3.org/2000/svg" xmlns:xlink="http://www.w3.org/1999/xlink" x="0px" y="0px"
	 viewBox="0 0 50 50" style="enable-background:new 0 0 50 50;" xml:space="preserve">
<style type="text/css">
	.st0{fill:none;}
</style>
<path d="M37.6,30c0,0-0.1,0.1-0.1,0.1C37.5,30.1,37.5,30.1,37.6,30z"/>
<polygon points="37.6,30 37.6,30 37.6,30 "/>
<path d="M43.2,28.8C43.2,28.8,43.2,28.8,43.2,28.8C43.2,28.8,43.2,28.8,43.2,28.8z"/>
<path d="M43.2,28.8C43.2,28.7,43.2,28.7,43.2,28.8C43.2,28.7,43.2,28.7,43.2,28.8z"/>
<path d="M43.2,28.8C43.2,28.8,43.2,28.8,43.2,28.8C43.2,28.8,43.2,28.8,43.2,28.8z"/>
<path class="st0" d="M32.3,2.7c0.4-0.5,0.8-1.2,0.6-1.9c-0.8,0-1.7,0.1-2.5,0.3c-2.8,0.9-4.9,3.6-5.4,6.7c1.1-0.8,2.4-1.4,3.8-1.7
	c0.6-0.5,1.2-1,1.8-1.6C31.2,4.1,31.8,3.4,32.3,2.7z"/>
<path class="st0" d="M23.6,4.4c-0.2-0.1-0.4,0-0.5,0c-0.2,0.1-0.3,0.3-0.3,0.6c0,0.9,0.1,1.8,0.1,2.7c0,0.2,0,0.4,0,0.7
	c0.1,0.1,0.3,0.2,0.4,0.3c0.1,0.1,0.3,0.2,0.6,0.3c0.1-0.1,0.2-0.2,0.3-0.3c0-0.8,0-1.7,0-2.5C24.1,5.7,24.1,4.7,23.6,4.4z"/>
<path class="st0" d="M36.2,34.8c0-0.1,0-0.1,0.1-0.2c-0.1,0.2-0.2,0.4-0.4,0.6C36,35.1,36.1,35,36.2,34.8z"/>
<path class="st1" d="M47.9,25.7c-1.3-0.9-4.1-3.9-8.4-3.8c0,0,0.2-11-11-12C17.3,9,15.2,20.5,15.1,22.4c0,0-8.1-0.5-11.6,3.5
	c-3.2,3.6-5,9-1.9,12.5c3,1.5,6.5,1.6,9.8,1.8c1.5,0,3,0,4.7,0L25,50l8.7-10c4.2-0.1,7.1-0.1,7.1-0.1s7.7-0.1,8.7-5.3
	C50.5,30,49.1,26.6,47.9,25.7z"/>
</svg>
