<?xml version="1.0" encoding="utf-8"?>
<!-- Generator: Adobe Illustrator 26.3.1, SVG Export Plug-In . SVG Version: 6.00 Build 0)  -->
<svg version="1.1" id="Calque_1" xmlns="http://www.w3.org/2000/svg" xmlns:xlink="http://www.w3.org/1999/xlink" x="0px" y="0px"
	 viewBox="0 0 50 50" style="enable-background:new 0 0 50 50;" xml:space="preserve">
<style type="text/css">
</style>
<path d="M37.6,30c0,0-0.1,0.1-0.1,0.1C37.5,30.1,37.5,30.1,37.6,30z"/>
<polygon points="37.6,30 37.6,30 37.6,30 "/>
<path d="M43.2,28.8C43.2,28.8,43.2,28.8,43.2,28.8C43.2,28.8,43.2,28.8,43.2,28.8z"/>
<path d="M43.2,28.8C43.2,28.7,43.2,28.7,43.2,28.8C43.2,28.7,43.2,28.7,43.2,28.8z"/>
<path d="M43.2,28.8C43.2,28.8,43.2,28.8,43.2,28.8C43.2,28.8,43.2,28.8,43.2,28.8z"/>
<path class="st0" d="M42.1,13.1c0.8-0.8,0.5-2-0.3-2.5l-13-9.1c-1.5-1-2.6-2-4.4-1.2C22.7,1.1,21.1,2,19.6,3c0-0.1,0-0.1,0-0.2
	c-0.1-0.5-0.2-1-0.5-1.4c-0.4-0.4-1-0.3-1.5-0.3c-0.4,0-0.9,0-1.3,0S15.4,1.2,15,1.2c-0.5,0.1-1,0.1-1.4,0.2C13.3,1.5,13,1.7,12.9,2
	c-0.1,0.3-0.1,0.6-0.2,0.9c0,0.4-0.1,0.9-0.1,1.3c-0.1,0.5-0.1,1,0,1.5c0,0.1,0,0.2,0,0.3c-0.1,0.2-0.3,0.5-0.6,0.7
	c-1.9,1.7-4.4,3-6.5,4.5c-1.2,0.8-0.9,3,0.7,3c0.1,7.7,0.3,15.4,0.7,23.1c0,0.3,0,0.5,0,0.8c0,0,0,0.1,0,0.1c0,1,0.8,1.5,1.5,1.5
	c0.3,0.2,0.6,0.3,1,0.3c1.1,0,2.3-0.1,3.4-0.2c0.4,0,0.7,0,1.1-0.1c0.6,0,1.2,0,1.8,0L25,50l9.2-10.6c2.1,0.1,4.3,0.1,6.4,0.3
	c0.9,0.1,1.6-0.8,1.6-1.6c0.3-8.1,0-16.2-1-24.3C41.5,13.6,41.8,13.4,42.1,13.1z M37.8,12.3c-0.1-0.3-0.2-0.6-0.3-0.8
	c0.2,0.1,0.3,0.2,0.5,0.3C37.9,12,37.8,12.2,37.8,12.3z"/>
</svg>
