<?xml version="1.0" encoding="utf-8"?>
<!-- Generator: Adobe Illustrator 26.3.1, SVG Export Plug-In . SVG Version: 6.00 Build 0)  -->
<svg version="1.1" id="Calque_1" xmlns="http://www.w3.org/2000/svg" xmlns:xlink="http://www.w3.org/1999/xlink" x="0px" y="0px"
	 viewBox="0 0 50 50" style="enable-background:new 0 0 50 50;" xml:space="preserve">
<style type="text/css">
	.st0{fill:none;}
</style>
<path d="M37.6,30c0,0-0.1,0.1-0.1,0.1C37.5,30.1,37.5,30.1,37.6,30z"/>
<polygon points="37.6,30 37.6,30 37.6,30 "/>
<path d="M43.2,28.8C43.2,28.8,43.2,28.8,43.2,28.8C43.2,28.8,43.2,28.8,43.2,28.8z"/>
<path d="M43.2,28.8C43.2,28.7,43.2,28.7,43.2,28.8C43.2,28.7,43.2,28.7,43.2,28.8z"/>
<path d="M43.2,28.8C43.2,28.8,43.2,28.8,43.2,28.8C43.2,28.8,43.2,28.8,43.2,28.8z"/>
<path class="st0" d="M23.6,4.4c-0.2-0.1-0.4,0-0.5,0c-0.2,0.1-0.3,0.3-0.3,0.6c0,0.9,0.1,1.8,0.1,2.7c0,0.2,0,0.4,0,0.7
	c0.1,0.1,0.3,0.2,0.4,0.3c0.1,0.1,0.3,0.2,0.6,0.3c0.1-0.1,0.2-0.2,0.3-0.3c0-0.8,0-1.7,0-2.5C24.1,5.7,24.1,4.7,23.6,4.4z"/>
<path class="st0" d="M36.2,34.8c0-0.1,0-0.1,0.1-0.2c-0.1,0.2-0.2,0.4-0.4,0.6C36,35.1,36.1,35,36.2,34.8z"/>
<path class="st1" d="M49.9,27.1c-0.1-0.4-0.3-0.7-0.6-1c-0.2-0.2-0.4-0.5-0.6-0.7c-0.1-0.1-0.2-0.2-0.2-0.2
	c-2.7-4.5-5.6-8.9-8.6-13.1c-1.4-1.9-2.2-4.5-4-5.9c-1.5-1.2-3.8-1.5-5.2,0.1c-0.5,0.6-1.1,1.7-1.8,2.2c-0.1,0-0.2,0-0.3,0
	c-0.2,0-0.5-0.1-0.7-0.6C27.6,7,27.4,6.2,27,5.5c-0.9-1.5-2.4-2.7-4.2-3.2c-0.8-0.2-1.6-0.3-2.3-0.2c-5.1-0.6-7.7,4.8-10.1,8.4
	c-0.6,0.9-1.2,1.7-1.7,2.6c-1.4,1.6-2.5,3.2-3.4,5.2c-0.1,0.2-0.2,0.3-0.3,0.5c-1.6,2.4-3.5,4.8-4.4,7.6c-0.3,0.2-0.4,0.7,0,1
	c4.5,3.4,8.7,7,12.3,11.4c3.4,4.3,7.3,8,11.7,11.2c0.3,0.2,0.5,0.1,0.6-0.1c0,0,0.1,0,0.1-0.1c5.1-4.1,10-8.2,15-12.4
	c2.4-2,4.8-4,7.1-6.1c0.6-0.6,1.5-1.3,2-2.1c0.3-0.4,0.4-0.8,0.4-1.3C50,27.5,49.9,27.3,49.9,27.1z M25,10.8
	c-0.9,0.9-1.8,1.5-3.1,0.8c-0.2-0.1-0.7-0.7-0.9-0.7c-0.2,0-0.4,0.3-0.5,0.4c-0.4,0.5-0.8,0.8-1.4,1.1c-1.2,0.6-2.5,0.4-2.9-1.1
	c-0.1-0.6,0-0.6-0.6-0.9c-0.4-0.2-0.8-0.4-1.1-0.7c-0.6-0.5-0.9-1.1-0.8-1.8c-0.1-0.3,0-0.5,0.2-0.8c1-1.2,2-2.7,3.4-3.4
	C18.5,3.2,20,3,21.3,3c1.2,0,2.4,0.3,3.3,1.2c0.9,0.9,1.9,2.3,2.1,3.6C27,9.2,25.9,9.9,25,10.8z M35.1,10.2
	c-0.1-0.1-0.2-0.3-0.4-0.4c0,0.5-0.2,1.1-0.6,1.5c-0.5,0.6-1.6,0.1-1.5-0.6c0-0.3,0-0.5,0.1-0.8c0-0.1,0-0.2,0-0.3
	c-0.1,0-0.3,0.1-0.4,0.1c-0.7,0.1-1.2-0.5-1.3-1.1c-0.1-0.4-0.1-0.9,0.3-1.2c0.3-0.2,0.6-0.4,0.9-0.5c0.7-0.4,1.4-0.6,2.3-0.2
	c1.1,0.5,1.9,1.5,2.2,2.7C36.8,10.2,35.7,10.9,35.1,10.2z"/>
</svg>
