<?xml version="1.0" encoding="UTF-8" standalone="no"?>
<!-- Generator: Adobe Illustrator 26.0.2, SVG Export Plug-In . SVG Version: 6.00 Build 0)  -->

<svg
   xmlns:dc="http://purl.org/dc/elements/1.1/"
   xmlns:cc="http://creativecommons.org/ns#"
   xmlns:rdf="http://www.w3.org/1999/02/22-rdf-syntax-ns#"
   xmlns:svg="http://www.w3.org/2000/svg"
   xmlns="http://www.w3.org/2000/svg"
   xmlns:sodipodi="http://sodipodi.sourceforge.net/DTD/sodipodi-0.dtd"
   xmlns:inkscape="http://www.inkscape.org/namespaces/inkscape"
   version="1.1"
   id="Calque_1"
   x="0px"
   y="0px"
   viewBox="0 0 50 50"
   style="enable-background:new 0 0 50 50;"
   xml:space="preserve"
   sodipodi:docname="marker-fun-animal-2.svg"
   inkscape:version="0.92.4 (5da689c313, 2019-01-14)"><metadata
   id="metadata13"><rdf:RDF><cc:Work
       rdf:about=""><dc:format>image/svg+xml</dc:format><dc:type
         rdf:resource="http://purl.org/dc/dcmitype/StillImage" /></cc:Work></rdf:RDF></metadata><defs
   id="defs11" /><sodipodi:namedview
   pagecolor="#ffffff"
   bordercolor="#666666"
   borderopacity="1"
   objecttolerance="10"
   gridtolerance="10"
   guidetolerance="10"
   inkscape:pageopacity="0"
   inkscape:pageshadow="2"
   inkscape:window-width="640"
   inkscape:window-height="480"
   id="namedview9"
   showgrid="false"
   inkscape:zoom="4.72"
   inkscape:cx="25"
   inkscape:cy="25"
   inkscape:window-x="2358"
   inkscape:window-y="288"
   inkscape:window-maximized="0"
   inkscape:current-layer="Calque_1" />
<style
   type="text/css"
   id="style2">
</style>
<g
   id="g6">
	<path
   class="st0"
   d="M 43.8,13.3 C 47.1,11.2 48.1,5.1 44.4,3 41.8,1.6 37.8,2.1 35.5,4.2 32.5,2.3 29.6,1.3 27,1 26.2,0.9 25.5,0.9 24.7,0.9 23.9,0.9 23,1 22.2,1.1 18.7,1.6 15.7,3.2 13.4,4.9 11.1,3.4 8.3,2.9 5.6,3.3 3.8,3.5 2,4.5 1.3,6.4 c -0.6,1.8 -0.6,4.2 0,6 0.4,1.3 1.3,2.5 2.4,3.2 C 4,16 4.4,16.4 4.9,16.7 4.5,18.4 4.3,20.2 4.4,22.1 5.2,35.7 21,47.5 24,49.7 c 0.3,0.2 0.6,0.3 0.9,0.3 0.3,0 0.6,-0.1 0.9,-0.3 3,-2.2 18.8,-14 19.6,-27.6 0,-0.5 0.6,-4.2 -1.6,-8.8 z"
   id="path4"
   inkscape:connector-curvature="0"
   sodipodi:nodetypes="ccccscccccccccsccc" />
</g>
</svg>