<?xml version="1.0" encoding="UTF-8" standalone="no"?>
<!-- Generator: Adobe Illustrator 26.0.2, SVG Export Plug-In . SVG Version: 6.00 Build 0)  -->

<svg
   xmlns:dc="http://purl.org/dc/elements/1.1/"
   xmlns:cc="http://creativecommons.org/ns#"
   xmlns:rdf="http://www.w3.org/1999/02/22-rdf-syntax-ns#"
   xmlns:svg="http://www.w3.org/2000/svg"
   xmlns="http://www.w3.org/2000/svg"
   xmlns:sodipodi="http://sodipodi.sourceforge.net/DTD/sodipodi-0.dtd"
   xmlns:inkscape="http://www.inkscape.org/namespaces/inkscape"
   version="1.1"
   id="Calque_1"
   x="0px"
   y="0px"
   viewBox="0 0 50 50"
   style="enable-background:new 0 0 50 50;"
   xml:space="preserve"
   sodipodi:docname="marker-fun-animal.svg"
   inkscape:version="0.92.4 (5da689c313, 2019-01-14)"><metadata
   id="metadata19"><rdf:RDF><cc:Work
       rdf:about=""><dc:format>image/svg+xml</dc:format><dc:type
         rdf:resource="http://purl.org/dc/dcmitype/StillImage" /></cc:Work></rdf:RDF></metadata><defs
   id="defs17" /><sodipodi:namedview
   pagecolor="#ffffff"
   bordercolor="#666666"
   borderopacity="1"
   objecttolerance="10"
   gridtolerance="10"
   guidetolerance="10"
   inkscape:pageopacity="0"
   inkscape:pageshadow="2"
   inkscape:window-width="1920"
   inkscape:window-height="1043"
   id="namedview15"
   showgrid="false"
   inkscape:zoom="4.72"
   inkscape:cx="25.423729"
   inkscape:cy="25"
   inkscape:window-x="0"
   inkscape:window-y="0"
   inkscape:window-maximized="1"
   inkscape:current-layer="Calque_1" />
<style
   type="text/css"
   id="style2">
	.st0{fill:none;}
</style>
<g
   id="g12">
	<path
   class="st0"
   d="M42.1,5.4c-0.2-1-0.3-1.5-1.4-1.1c-1.4,0.5-2.7,1.5-3.9,2.3c-1.3,0.8-3.3,1.6-4.3,3c1.4,0.7,2.8,1.7,4.3,3   c0.1,0.1,0.3,0.2,0.4,0.3c0,0,0,0,0,0c0,0,0,0,0,0c1.1,1,2,2.1,2.7,3.1C42,12.9,42.9,9,42.1,5.4z"
   id="path4" />
	<path
   class="st0"
   d="M14.1,9.7c-1.3-0.2-2.7-0.3-4-0.3C9.4,9.4,8.7,9.4,8,9.5c-0.3,0-0.6,0.1-0.9,0.2c0,0.2,0.1,0.3,0.1,0.4   c0.1,0.5,0.2,1,0.4,1.6c0.2,0.9,0.5,1.7,0.9,2.6c0.3,0.7,0.7,1.4,1.1,2c0.2-0.3,0.4-0.7,0.7-1h0c0,0,0,0,0.1-0.1   c0.4-0.5,2.5-3.1,5.8-5.1C15.6,9.9,14.9,9.8,14.1,9.7z"
   id="path6" />
	<path
   class="st1"
   d="M 41.8,19.5 C 44.7,16.1 46.2,11.6 46,7.2 45.9,4.7 45.3,1.1 42.3,0.5 40.8,0.2 39.3,0.8 38,1.5 36.7,2.2 35.4,3.1 34.1,3.8 32.2,5 30.1,6.2 29,8.1 28.2,7.9 27.5,7.7 26.8,7.6 26.1,7.5 25.5,7.5 24.8,7.5 24.1,7.5 23.4,7.6 22.7,7.7 22.3,7.8 21.9,7.8 21.5,7.9 19.2,7.1 16.9,6.4 14.5,6.1 13,5.9 11.4,5.7 9.8,5.8 8.4,5.9 6.8,6 5.4,6.5 4.6,6.7 3.9,7.2 3.7,8 c -0.3,0.8 -0.1,1.5 0,2.3 0.2,1.3 0.5,2.7 1,3.9 0.8,2.1 1.9,4 3.3,5.8 -0.6,1.7 -0.8,3.7 -0.7,5.8 0.7,11.7 14.4,22 17,23.9 0.3,0.2 0.5,0.3 0.8,0.3 0.3,0 0.5,-0.1 0.8,-0.3 2.6,-1.9 16.3,-12.1 17,-23.9 -0.2,-0.3 0.2,-2.9 -1.1,-6.3 z m -31.3,-4.3 -0.1,0.1 v 0 c -0.2,0.3 -0.5,0.6 -0.7,1 C 9.3,15.6 8.9,15 8.6,14.3 8.2,13.5 7.9,12.6 7.7,11.7 7.6,11.2 7.4,10.7 7.3,10.1 7.3,10 7.2,9.8 7.2,9.7 7.5,9.6 7.8,9.6 8,9.5 8.7,9.4 9.4,9.4 10.1,9.3 c 1.3,0 2.7,0.1 4,0.3 0.7,0.1 1.4,0.3 2.1,0.4 -3.2,2.1 -5.3,4.7 -5.7,5.2 z M 37.6,30 v 0 l -0.1,0.1 c 0.03333,-0.03333 0.06667,-0.06667 0.1,-0.1 z M 37.2,12.9 c 0,-0.1 0,-0.1 0,0 -0.1,-0.1 -0.1,-0.1 0,0 -0.2,-0.2 -0.3,-0.3 -0.5,-0.4 -1.5,-1.3 -2.9,-2.2 -4.3,-3 1,-1.3 3,-2.2 4.3,-3 C 38,5.7 39.3,4.8 40.6,4.2 41.7,3.8 41.8,4.3 42,5.3 42.9,9 42,12.9 39.9,16 39.2,14.9 38.3,13.9 37.2,12.9 Z"
   id="path8"
   inkscape:connector-curvature="0"
   sodipodi:nodetypes="ccssccsscccccccccccscccccccccccccccccccccccccscccc" />
	<polygon
   class="st1"
   points="37.6,30 37.6,30 37.6,30  "
   id="polygon10" />
</g>
</svg>