<?xml version="1.0" encoding="UTF-8" standalone="no"?>
<!-- Generator: Adobe Illustrator 26.0.2, SVG Export Plug-In . SVG Version: 6.00 Build 0)  -->

<svg
   xmlns:dc="http://purl.org/dc/elements/1.1/"
   xmlns:cc="http://creativecommons.org/ns#"
   xmlns:rdf="http://www.w3.org/1999/02/22-rdf-syntax-ns#"
   xmlns:svg="http://www.w3.org/2000/svg"
   xmlns="http://www.w3.org/2000/svg"
   xmlns:sodipodi="http://sodipodi.sourceforge.net/DTD/sodipodi-0.dtd"
   xmlns:inkscape="http://www.inkscape.org/namespaces/inkscape"
   version="1.1"
   id="Calque_1"
   x="0px"
   y="0px"
   viewBox="0 0 50 50"
   style="enable-background:new 0 0 50 50;"
   xml:space="preserve"
   sodipodi:docname="fun-hair.svg"
   inkscape:version="0.92.4 (5da689c313, 2019-01-14)"><metadata
   id="metadata13"><rdf:RDF><cc:Work
       rdf:about=""><dc:format>image/svg+xml</dc:format><dc:type
         rdf:resource="http://purl.org/dc/dcmitype/StillImage" /></cc:Work></rdf:RDF></metadata><defs
   id="defs11" /><sodipodi:namedview
   pagecolor="#ffffff"
   bordercolor="#666666"
   borderopacity="1"
   objecttolerance="10"
   gridtolerance="10"
   guidetolerance="10"
   inkscape:pageopacity="0"
   inkscape:pageshadow="2"
   inkscape:window-width="1920"
   inkscape:window-height="1043"
   id="namedview9"
   showgrid="false"
   inkscape:zoom="4.72"
   inkscape:cx="25.741525"
   inkscape:cy="25"
   inkscape:window-x="0"
   inkscape:window-y="0"
   inkscape:window-maximized="1"
   inkscape:current-layer="Calque_1" />
<style
   type="text/css"
   id="style2">
</style>
<g
   id="g6">
	<path
   class="st0"
   d="m 46.2,12.7 c -0.5,-0.2 -1,-0.4 -1.5,-0.4 0,0 0,-0.1 0.1,-0.1 0.4,-0.8 0.5,-1.8 0,-2.6 C 44.3,8.8 43.5,8.3 42.6,8.2 42,8 41.5,8.1 41,8.2 c -0.1,0 -0.4,0 -0.7,0.1 l 0.3,-0.6 c 0.3,-0.9 0,-1.9 -0.7,-2.5 -0.7,-0.7 -1.7,-0.9 -2.7,-0.9 -0.5,0 -1,0.1 -1.5,0.2 -0.2,0 -0.3,0.1 -0.5,0.1 0,-0.4 -0.1,-0.8 -0.3,-1.2 -0.5,-0.9 -1.5,-1.3 -2.5,-1.3 -0.9,0 -1.8,0.5 -2.5,1 -0.4,0.3 -0.2,0.3 -0.5,0 C 29.2,2.8 29,2.3 28.9,2 28,0.3 26.1,-0.3 24.4,0.6 23.6,1 23,1.7 22.5,2.5 c -0.2,0.4 -0.4,0.9 -0.8,1.2 -0.5,0.4 -0.4,0.2 -1,-0.1 -1.8,-1 -4.4,-1.3 -5.6,0.8 -0.3,0.5 -0.4,1 -0.5,1.5 0,0.1 -0.1,0.4 -0.2,0.5 -0.2,0.2 0,0 -0.3,-0.1 C 12.9,5.8 11.9,5.5 10.7,5.9 10.1,6.1 9.5,6.7 9.6,7.4 c 0.1,1 0.1,1.9 0,2.9 v 0.3 c -0.2,0 -0.4,-0.1 -0.4,-0.1 -1.3,-0.3 -2.7,-0.2 -3.4,1.2 -0.7,1.5 0.2,3.1 0.7,4.4 0.6,1.6 1.3,3.1 1.9,4.7 -0.6,1.7 -0.9,3.7 -0.7,5.8 0.6,11.4 14,21.3 16.5,23.2 0.3,0.2 0.5,0.2 0.8,0.3 0.3,0 0.5,-0.1 0.8,-0.3 C 28.3,48 41.6,38 42.3,26.6 c -0.1,-0.3 0.2,-2.5 -0.7,-5.5 1.2,-0.6 2.4,-1.2 3.5,-1.9 1.2,-0.7 2.3,-1.7 2.6,-3.1 0.2,-1.4 -0.4,-2.7 -1.5,-3.4 z"
   id="path4"
   inkscape:connector-curvature="0"
   sodipodi:nodetypes="cccscccccscccscccccccccscscccccccccccccccc" />
</g>
</svg>