<?xml version="1.0" encoding="UTF-8" standalone="no"?>
<!-- Generator: Adobe Illustrator 26.0.2, SVG Export Plug-In . SVG Version: 6.00 Build 0)  -->

<svg
   xmlns:dc="http://purl.org/dc/elements/1.1/"
   xmlns:cc="http://creativecommons.org/ns#"
   xmlns:rdf="http://www.w3.org/1999/02/22-rdf-syntax-ns#"
   xmlns:svg="http://www.w3.org/2000/svg"
   xmlns="http://www.w3.org/2000/svg"
   xmlns:sodipodi="http://sodipodi.sourceforge.net/DTD/sodipodi-0.dtd"
   xmlns:inkscape="http://www.inkscape.org/namespaces/inkscape"
   version="1.1"
   id="Calque_1"
   x="0px"
   y="0px"
   viewBox="0 0 50 50"
   style="enable-background:new 0 0 50 50;"
   xml:space="preserve"
   sodipodi:docname="fun-egg.svg"
   inkscape:version="0.92.4 (5da689c313, 2019-01-14)"><metadata
   id="metadata9"><rdf:RDF><cc:Work
       rdf:about=""><dc:format>image/svg+xml</dc:format><dc:type
         rdf:resource="http://purl.org/dc/dcmitype/StillImage" /></cc:Work></rdf:RDF></metadata><defs
   id="defs7" /><sodipodi:namedview
   pagecolor="#ffffff"
   bordercolor="#666666"
   borderopacity="1"
   objecttolerance="10"
   gridtolerance="10"
   guidetolerance="10"
   inkscape:pageopacity="0"
   inkscape:pageshadow="2"
   inkscape:window-width="756"
   inkscape:window-height="480"
   id="namedview5"
   showgrid="false"
   inkscape:zoom="4.72"
   inkscape:cx="25.317797"
   inkscape:cy="25"
   inkscape:window-x="0"
   inkscape:window-y="0"
   inkscape:window-maximized="0"
   inkscape:current-layer="Calque_1" />
<path
   class="st0"
   d="m 48,12.1 c 0.7,-0.9 1.2,-1.9 1.3,-3 0.4,-4.4 -4,-6.8 -7.9,-7 C 36.9,1.9 32.8,3.9 28.4,4.7 26.4,5 24.7,4.7 23,3.6 21.4,2.5 20,1.2 18.1,0.6 14.5,-0.6 9.3,0.4 7.3,3.9 6.2,5.8 6.4,8.2 6.7,10.4 c 0.2,1.1 0.5,2.1 0.9,3.1 0.3,0.7 0.8,1.6 0.5,2.4 -0.3,0.7 -0.9,1.2 -1.4,1.7 -0.7,0.7 -1.3,1.4 -1.8,2.2 -1.2,2 -1.4,4.6 -1.1,6.9 0.2,2.1 1.1,4.2 3.1,5.3 0.9,0.5 2,0.8 3,0.7 3.1,8.6 12.4,15.5 14.4,17 0.2,0.2 0.5,0.2 0.7,0.2 0.2,0 0.5,-0.1 0.7,-0.2 1.8,-1.3 9.6,-7.2 13.4,-14.6 3.5,-0.5 6.7,-2.5 8.5,-5.6 2,-3.4 2,-7.9 0.1,-11.3 -0.7,-1.3 -2.3,-2.7 -1.2,-4.3 0.4,-0.6 1,-1.2 1.5,-1.8 z M 31.4,7.9 31.3,8 C 31.2,8 31.2,8 31.1,7.9 Z M 42.7,6.1 42.5,5.9 C 42.7,5.9 42.8,6 43,6 42.8,6 42.8,6 42.7,6.1 Z"
   id="path2"
   inkscape:connector-curvature="0"
   sodipodi:nodetypes="csccccccccscccccscccccccccccccc" />
</svg>