<?xml version="1.0" encoding="UTF-8" standalone="no"?>
<!-- Generator: Adobe Illustrator 26.0.2, SVG Export Plug-In . SVG Version: 6.00 Build 0)  -->

<svg
   xmlns:dc="http://purl.org/dc/elements/1.1/"
   xmlns:cc="http://creativecommons.org/ns#"
   xmlns:rdf="http://www.w3.org/1999/02/22-rdf-syntax-ns#"
   xmlns:svg="http://www.w3.org/2000/svg"
   xmlns="http://www.w3.org/2000/svg"
   xmlns:sodipodi="http://sodipodi.sourceforge.net/DTD/sodipodi-0.dtd"
   xmlns:inkscape="http://www.inkscape.org/namespaces/inkscape"
   version="1.1"
   id="Calque_1"
   x="0px"
   y="0px"
   viewBox="0 0 50 50"
   style="enable-background:new 0 0 50 50;"
   xml:space="preserve"
   sodipodi:docname="fun-hat-2.svg"
   inkscape:version="0.92.4 (5da689c313, 2019-01-14)"><metadata
   id="metadata45"><rdf:RDF><cc:Work
       rdf:about=""><dc:format>image/svg+xml</dc:format><dc:type
         rdf:resource="http://purl.org/dc/dcmitype/StillImage" /></cc:Work></rdf:RDF></metadata><defs
   id="defs43" /><sodipodi:namedview
   pagecolor="#ffffff"
   bordercolor="#666666"
   borderopacity="1"
   objecttolerance="10"
   gridtolerance="10"
   guidetolerance="10"
   inkscape:pageopacity="0"
   inkscape:pageshadow="2"
   inkscape:window-width="756"
   inkscape:window-height="480"
   id="namedview41"
   showgrid="false"
   inkscape:zoom="4.72"
   inkscape:cx="25.317797"
   inkscape:cy="25"
   inkscape:window-x="0"
   inkscape:window-y="0"
   inkscape:window-maximized="0"
   inkscape:current-layer="Calque_1" />
<style
   type="text/css"
   id="style2">
	.st0{fill:none;}
	.st2{fill:#FFFFFF;}
</style>
<path
   class="st0"
   d="M43.9,9.1c0.2-0.3,0.4-0.5,0.5-0.8c0.4-1,0.6-2,0.3-3c-0.4-1.3-1.5-0.9-2.5-1c-1-0.1-1.5-0.7-1.9-1.5  c0-0.1-0.1-0.1-0.1-0.1c-0.1-0.2-0.3-0.4-0.4-0.5c-0.1-0.1-0.2-0.1-0.3-0.2c-0.4-0.1-0.8,0.1-1.2,0.2c-2,1-4,2-6,3  c-0.1,0-0.2,0-0.2,0.1c-0.3,0.2-0.4,0.6-0.2,0.8c0.3,0.4,0.6,0.5,1,0.6c0.4,0.1,0.9,0.3,1.3,0.4c0.3,0.1,0.5,0.2,0.8,0.2  c0.8,0.4,1.7,0.8,2.5,1.2c0.7,0.4,1.2,0.9,1.7,1.5c0.7,0.8,1.4,1.6,2.5,2c0,0,0,0,0.1,0c0.1,0.1,0.2,0.1,0.4,0.1  c0.1,0,0.2,0,0.3-0.1c0.1-0.1,0.2-0.2,0.3-0.3c0.1-0.3,0.2-0.5,0.3-0.8C43.2,10.4,43.5,9.8,43.9,9.1z"
   id="path4" />
<path
   class="st1"
   d="M 40.8,20.9 C 40,20.6 39.2,20.2 38.4,19.7 37.2,18.9 36.2,17.8 35,16.9 33.9,16 32.7,15.2 31.4,14.5 29.3,13.3 27.1,12.2 24.8,11.3 24.4,11.1 23.9,10.9 23.5,10.7 23,10.5 22.4,10.3 21.8,9.9 15.7,11.2 11.6,16.2 11,16.9 11,17 10.9,17 10.9,17 v 0 C 9,19.6 7.7,22.9 7.9,27 8.5,38.1 21.5,47.8 24,49.6 c 0.2,0.2 0.5,0.2 0.8,0.3 v 0 c 0.2,0 0.5,-0.1 0.8,-0.3 2.5,-1.8 15.5,-11.5 16.1,-22.6 0.1,-0.2 0.4,-2.8 -0.9,-6.1 z"
   id="path6"
   inkscape:connector-curvature="0"
   sodipodi:nodetypes="ccccccccccccccccc" />
<path
   class="st1"
   d="M30.1,12.3c0.6,0.3,1.3,0.7,1.9,1c-0.2-0.1-0.3-0.2-0.5-0.4C31,12.8,30.5,12.6,30.1,12.3z"
   id="path8" />
<path
   class="st0"
   d="M43,11.1c0.5-0.8,1.1-1.8,1.5-2.8c-0.2,0.3-0.4,0.5-0.5,0.8C43.5,9.8,43.2,10.4,43,11.1z"
   id="path10" />
<path
   class="st0"
   d="M41.7,15.2C41.6,15.2,41.6,15.2,41.7,15.2c-0.1,0-0.2-0.1-0.2-0.1c0.1,0.2,0.2,0.3,0.3,0.5  C41.7,15.5,41.7,15.4,41.7,15.2z"
   id="path12" />
<path
   class="st0"
   d="M23.2,6.7c-0.2,0-0.4,0.1-0.6,0.1c-0.2,0.1-0.4,0.2-0.5,0.4c0.1-0.1,0.2-0.2,0.3-0.2  C22.5,6.9,22.8,6.7,23.2,6.7z"
   id="path14" />
<path
   class="st0"
   d="M41.5,19.9c-0.5-0.2-1-0.4-1.5-0.7c0,0,0,0,0,0.1c0.4,0.2,0.8,0.4,1.2,0.5c0.3,0.1,0.6,0.2,0.9,0.3  C42,20,41.9,20,41.8,19.9C41.7,19.9,41.6,19.9,41.5,19.9z"
   id="path16" />
<path
   class="st1"
   d="M39.3,18.8c0.3,0.2,0.5,0.3,0.8,0.5c0,0,0,0,0-0.1C39.8,19.1,39.5,19,39.3,18.8z"
   id="path18" />
<path
   class="st0"
   d="M40.4,2.9c0-0.1-0.1-0.1-0.1-0.2c-0.1-0.3-0.3-0.4-0.5-0.5c0.2,0.1,0.3,0.3,0.4,0.5C40.3,2.8,40.3,2.8,40.4,2.9  z"
   id="path20" />
<path
   class="st0"
   d="M42.3,12.4c0-0.1,0.1-0.1,0.1-0.2c-0.1,0.1-0.2,0.1-0.3,0.1C42.2,12.3,42.2,12.4,42.3,12.4z"
   id="path22" />
<path
   class="st0"
   d="M44.8,20.2C44.8,20.2,44.8,20.2,44.8,20.2c0,0-0.1,0.1-0.2,0.1C44.7,20.3,44.8,20.2,44.8,20.2z"
   id="path24" />
<path
   class="st1"
   d="M44.8,17.8c-0.4-0.6-0.9-1.1-1.3-1.7c-0.2-0.3-0.5-0.5-0.6-0.9c-0.1-0.4,0-0.8,0.1-1.2c0.7-2.4,2.5-4.3,3-6.8  c0.2-1.1,0.1-2.2-0.5-3.1c-0.7-1-1.7-1.1-2.9-1c-0.4,0-0.8,0-1-0.4c-0.2-0.3-0.2-0.6-0.4-0.8C41,1.4,40.5,1.1,40,1  c-1.3-0.2-2.8,0.7-3.9,1.3c-2.6,1.4-4.9,3.3-7.8,4.2c-1.1-0.3-2.1-0.5-3.2-0.7c0,0,0,0,0,0c-1.2-0.2-2.6-0.4-3.6,0.5  c-0.8,0.7-1.2,1.8-0.6,2.8c0.3,0.5,0.7,0.8,1.2,1.1c0.5,0.3,1.1,0.5,1.7,0.8c0.4,0.2,0.9,0.4,1.3,0.6c2.2,1,4.5,2,6.6,3.2  c1.2,0.7,2.4,1.5,3.6,2.4c1.1,0.9,2.2,2,3.4,2.8c0.7,0.5,1.5,0.9,2.4,1.2c0.5,0.2,1,0.3,1.5,0.4c1,0.2,2.8,0.6,3.6-0.2  C46.8,20.1,45.3,18.6,44.8,17.8z M32.1,5.3c0.1,0,0.2-0.1,0.2-0.1c2-1,4-2,6-3C38.7,2.1,39,1.9,39.5,2c0.1,0,0.2,0.1,0.3,0.2  c0.2,0.1,0.4,0.2,0.5,0.5c0,0.1,0.1,0.1,0.1,0.2c0.5,0.6,1.2,1,1.9,1.2c0.8,0.1,1.7,0.1,2.3,0.7c0.6,0.5,0.7,1.4,0.6,2.1  c-0.1,0.6-0.4,1.1-0.7,1.5c-0.4,1-1,1.9-1.5,2.8c-0.1,0.3-0.2,0.5-0.3,0.8c0,0.2-0.2,0.3-0.3,0.3c0,0.1-0.1,0.1-0.1,0.2  c-0.1,0-0.1-0.1-0.2-0.1c-0.1,0-0.3,0-0.4-0.1c0,0,0,0-0.1,0c-1-0.5-1.8-1.2-2.5-2c-0.5-0.6-1.1-1.1-1.7-1.5  c-0.8-0.4-1.7-0.8-2.5-1.2c-0.3-0.1-0.5-0.2-0.8-0.2c-0.4-0.1-0.9-0.3-1.3-0.4c-0.4-0.1-0.8-0.3-1-0.6C31.7,5.9,31.9,5.5,32.1,5.3z   M44.8,20.2c0,0.1-0.1,0.1-0.2,0.1c0,0,0,0,0,0c-0.8,0.5-1.6,0.1-2.4-0.2c0,0,0,0-0.1,0c-0.3-0.1-0.6-0.2-0.9-0.3  c-0.4-0.1-0.8-0.3-1.2-0.5c-0.3-0.2-0.6-0.3-0.8-0.5c-0.3-0.2-0.7-0.4-1-0.6c-0.6-0.3-1.1-0.6-1.7-1c-0.9-0.7-1.6-1.5-2.4-2.1  c-0.7-0.6-1.5-1.2-2.2-1.7c-0.6-0.4-1.3-0.7-1.9-1c-1.7-0.8-3.4-1.5-5.1-2.2c-0.3-0.1-0.7-0.3-1-0.4c0,0,0,0,0,0  c-0.7-0.3-3.2-1.3-2-2.4c0,0,0,0,0,0c0.1-0.2,0.3-0.3,0.5-0.4c0.2-0.1,0.4-0.1,0.6-0.1c0,0,0.1,0,0.1,0c0.6,0,1.1,0,1.7,0.1  c0.7,0.1,1.3,0.2,1.9,0.3c2.5,0.5,4.9,1.3,7.1,2.5c1.2,0.6,2.3,1.3,3.3,2.1c0.5,0.4,0.9,0.7,1.3,1.1c0.6,0.5,1.2,0.8,1.8,1.3  c0.4,0.3,0.7,0.7,1,1.1c0,0,0.1,0,0.1,0.1c0,0,0.1,0,0.1,0c0,0.1,0,0.3,0.1,0.4c0.3,0.4,0.5,0.8,0.8,1.2c0.8,0.9,1.6,1.6,2.2,2.6  C45,19.7,44.9,20,44.8,20.2C44.8,20.2,44.8,20.2,44.8,20.2z"
   id="path26" />
<path
   class="st2"
   d="M43.2,20.3c-0.4,0-0.7-0.1-1.1-0.2c0,0,0,0,0.1,0c0.8,0.3,1.6,0.7,2.4,0.2c0,0,0,0,0,0  C44.3,20.4,43.5,20.3,43.2,20.3z"
   id="path28" />
<path
   class="st2"
   d="M43.7,18.4c0.2,0.3,1.1,1.4,1.1,1.7c0.1-0.2,0.2-0.5,0-0.7c-0.6-1-1.5-1.8-2.2-2.6c-0.3-0.4-0.6-0.8-0.8-1.2  c0.1,0.4,0.4,0.8,0.7,1.2C42.9,17.4,43.3,17.9,43.7,18.4z"
   id="path30" />
<path
   class="st2"
   d="M32,13.4c0.8,0.5,1.5,1.1,2.2,1.7c0.8,0.7,1.6,1.5,2.4,2.1c0.5,0.4,1.1,0.7,1.7,1c0.3,0.2,0.6,0.4,1,0.6  c-1.4-1-2.7-2.2-4-3.3C34.2,14.7,33.1,14,32,13.4z"
   id="path32" />
<path
   class="st2"
   d="M23.2,9.2c-0.5-0.2-1.1-0.5-1.4-0.9c-0.3-0.4-0.1-0.8,0.1-1.1c0,0,0,0,0,0c-1.2,1.2,1.3,2.1,2,2.4  c0.1,0,0.2,0,0.3,0C23.9,9.5,23.6,9.4,23.2,9.2z"
   id="path34" />
<path
   class="st2"
   d="M25.1,10C25.1,10,25,10,25,10v0.2c1.7,0.7,3.4,1.4,5.1,2.2c-0.4-0.2-0.8-0.4-1.2-0.6  C27.7,11.1,26.4,10.6,25.1,10z"
   id="path36" />
<path
   class="st2"
   d="M24.3,9.7c-0.1,0-0.2,0-0.3,0c0,0,0,0,0,0c0.3,0.2,0.7,0.3,1,0.4V10C24.8,9.9,24.5,9.8,24.3,9.7z"
   id="path38" />
</svg>