<?xml version="1.0" encoding="UTF-8" standalone="no"?>
<!-- Generator: Adobe Illustrator 26.0.2, SVG Export Plug-In . SVG Version: 6.00 Build 0)  -->

<svg
   xmlns:dc="http://purl.org/dc/elements/1.1/"
   xmlns:cc="http://creativecommons.org/ns#"
   xmlns:rdf="http://www.w3.org/1999/02/22-rdf-syntax-ns#"
   xmlns:svg="http://www.w3.org/2000/svg"
   xmlns="http://www.w3.org/2000/svg"
   xmlns:sodipodi="http://sodipodi.sourceforge.net/DTD/sodipodi-0.dtd"
   xmlns:inkscape="http://www.inkscape.org/namespaces/inkscape"
   version="1.1"
   id="Calque_1"
   x="0px"
   y="0px"
   viewBox="0 0 50 50"
   style="enable-background:new 0 0 50 50;"
   xml:space="preserve"
   sodipodi:docname="fun-hat.svg"
   inkscape:version="0.92.4 (5da689c313, 2019-01-14)"><metadata
   id="metadata25"><rdf:RDF><cc:Work
       rdf:about=""><dc:format>image/svg+xml</dc:format><dc:type
         rdf:resource="http://purl.org/dc/dcmitype/StillImage" /></cc:Work></rdf:RDF></metadata><defs
   id="defs23" /><sodipodi:namedview
   pagecolor="#ffffff"
   bordercolor="#666666"
   borderopacity="1"
   objecttolerance="10"
   gridtolerance="10"
   guidetolerance="10"
   inkscape:pageopacity="0"
   inkscape:pageshadow="2"
   inkscape:window-width="756"
   inkscape:window-height="480"
   id="namedview21"
   showgrid="false"
   inkscape:zoom="4.72"
   inkscape:cx="25.317797"
   inkscape:cy="25"
   inkscape:window-x="0"
   inkscape:window-y="0"
   inkscape:window-maximized="0"
   inkscape:current-layer="Calque_1" />
<style
   type="text/css"
   id="style2">
</style>
<path
   d="M37.6,30c0,0-0.1,0.1-0.1,0.1C37.5,30.1,37.5,30.1,37.6,30z"
   id="path4" />
<polygon
   points="37.6,30 37.6,30 37.6,30 "
   id="polygon6" />
<path
   d="M43.2,28.8C43.2,28.8,43.2,28.8,43.2,28.8C43.2,28.8,43.2,28.8,43.2,28.8z"
   id="path8" />
<path
   d="M43.2,28.8C43.2,28.7,43.2,28.7,43.2,28.8C43.2,28.7,43.2,28.7,43.2,28.8z"
   id="path10" />
<path
   d="M43.2,28.8C43.2,28.8,43.2,28.8,43.2,28.8C43.2,28.8,43.2,28.8,43.2,28.8z"
   id="path12" />
<g
   id="g18">
	<path
   class="st0"
   d="M 44.6,9.1 C 41.5,4.1 37.8,4 36,3.6 36.1,3.5 36.2,3.3 36.3,3.1 36.4,2.9 36.4,2.7 36.4,2.5 V 2.3 1.9 C 36.3,1.5 35.9,1.2 35.5,1.2 c -0.3,0 -0.6,0.1 -0.8,0.3 -0.1,0 -0.1,0.1 -0.1,0.2 -0.1,0.1 -0.2,0.2 -0.2,0.3 l -0.3,0.6 v 0 C 32.1,1.5 28.7,-0.3 25.9,-0.2 22.9,0 18.7,2.6 19.5,3.9 13.6,6 9.7,10.7 9.1,11.4 L 9,11.5 v 0 c -2.2,3 -3.7,6.9 -3.5,11.7 0.7,12.9 15.8,24.2 18.7,26.3 0.3,0.2 0.6,0.3 0.9,0.3 0.3,0 0.6,-0.1 0.9,-0.3 2.9,-2.1 18,-13.4 18.7,-26.3 -0.1,-0.4 0.3,-3.6 -1.3,-7.5 0.8,0 4.6,-1 1.2,-6.6 z m -1.3,19.3 v 0 c 0,-0.2 0,-0.2 0,0 v 0 0.2 0 0 z"
   id="path14"
   inkscape:connector-curvature="0"
   sodipodi:nodetypes="ccssccsccccccccccccscccccccccccc" />
	<path
   d="M43.3,28.4C43.3,28.2,43.3,28.2,43.3,28.4L43.3,28.4z"
   id="path16" />
</g>
</svg>