<?xml version="1.0" encoding="UTF-8" standalone="no"?>
<!-- Generator: Adobe Illustrator 26.0.2, SVG Export Plug-In . SVG Version: 6.00 Build 0)  -->

<svg
   xmlns:dc="http://purl.org/dc/elements/1.1/"
   xmlns:cc="http://creativecommons.org/ns#"
   xmlns:rdf="http://www.w3.org/1999/02/22-rdf-syntax-ns#"
   xmlns:svg="http://www.w3.org/2000/svg"
   xmlns="http://www.w3.org/2000/svg"
   xmlns:sodipodi="http://sodipodi.sourceforge.net/DTD/sodipodi-0.dtd"
   xmlns:inkscape="http://www.inkscape.org/namespaces/inkscape"
   version="1.1"
   id="Calque_1"
   x="0px"
   y="0px"
   viewBox="0 0 50 50"
   style="enable-background:new 0 0 50 50;"
   xml:space="preserve"
   sodipodi:docname="fun-flower.svg"
   inkscape:version="0.92.4 (5da689c313, 2019-01-14)"><metadata
   id="metadata27"><rdf:RDF><cc:Work
       rdf:about=""><dc:format>image/svg+xml</dc:format><dc:type
         rdf:resource="http://purl.org/dc/dcmitype/StillImage" /></cc:Work></rdf:RDF></metadata><defs
   id="defs25" /><sodipodi:namedview
   pagecolor="#ffffff"
   bordercolor="#666666"
   borderopacity="1"
   objecttolerance="10"
   gridtolerance="10"
   guidetolerance="10"
   inkscape:pageopacity="0"
   inkscape:pageshadow="2"
   inkscape:window-width="1920"
   inkscape:window-height="1043"
   id="namedview23"
   showgrid="false"
   inkscape:zoom="4.72"
   inkscape:cx="25.741525"
   inkscape:cy="25"
   inkscape:window-x="0"
   inkscape:window-y="0"
   inkscape:window-maximized="1"
   inkscape:current-layer="Calque_1" />
<style
   type="text/css"
   id="style2">
	.st0{fill:none;}
</style>
<g
   id="g20">
	<path
   class="st0"
   d="M39.4,30.3C39.4,30.4,39.4,30.4,39.4,30.3c2.8-0.5,6.6-2.3,5.8-5.7c-0.9-3.7-6-3.6-9-3.5   C40,25.6,39.3,29.9,39.4,30.3z"
   id="path4" />
	<path
   class="st0"
   d="M23.7,15.4c0.4,0,0.7-0.1,1.1-0.1c0.5,0,1.1,0,1.6,0.1c2.5,0.3,5.2,1.5,8.1,4c0.1,0.1,0.2,0.2,0.3,0.3   c0-0.4,0.2-0.7,0.6-0.9c1.6-0.7,2.3-2.5,1.7-4.1c-0.6-1.8-2.5-3-4.3-3.4c-2.3-0.5-5-0.1-7.3,0.6c-1.2,0.4-3.6,2-2,3.3   C23.6,15.3,23.7,15.4,23.7,15.4z"
   id="path6" />
	<path
   class="st0"
   d="M12.4,22.7c0.2-0.3,0.4-0.6,0.6-0.9h0c0,0,0,0,0.1-0.1c0.4-0.6,3.2-3.9,7.5-5.5c-2.5-1.7-5.9-2.3-8.3-0.2   c-1.1,1-1.8,2.4-1.6,4C10.9,21.1,11.5,22.1,12.4,22.7z"
   id="path8" />
	<path
   class="st0"
   d="M10.5,30.3c-0.1-2,0.2-3.8,0.8-5.3c-1.6-0.6-3.5-0.9-5.1-0.3c-1.5,0.5-2.9,1.9-2.9,3.5c0,1.9,1.8,3.4,3.3,4.3   c1.4,0.8,2.9,1.1,4.5,1.1C10.8,32.6,10.6,31.5,10.5,30.3z"
   id="path10" />
	<path
   class="st0"
   d="M38.9,33.3c-0.9,3.2-2.8,6.2-4.9,8.7c2.9,1.1,6.4,1.1,8.9-0.7c1.8-1.3,0.9-3.6-0.2-5.2   C41.7,34.9,40.4,33.9,38.9,33.3z"
   id="path12" />
	<circle
   class="st0"
   cx="24.9"
   cy="29.9"
   r="8.5"
   id="circle14" />
	<path
   class="st0"
   d="M7.1,39.1c-1.2,1.5-0.9,3.3,0.5,4.5c2.7,2.4,6.6,1.6,9.2-0.5c-1.8-2-3.5-4.3-4.7-6.9   C10.3,36.9,8.3,37.6,7.1,39.1z"
   id="path16" />
	<path
   class="st1"
   d="m 42.4,32.3 c 1,-0.4 2,-0.9 2.8,-1.6 1.8,-1.5 2.9,-3.8 2.6,-6.1 -0.3,-2.1 -1.9,-3.9 -3.8,-4.9 -1.5,-0.8 -3.1,-1 -4.8,-1.1 0.7,-1.3 0.9,-3 0.4,-4.4 -0.8,-2.9 -3.7,-4.8 -6.5,-5.4 -1.8,-0.3 -3.5,-0.2 -5.3,0 -1.6,0.2 -3.2,0.6 -4.6,1.3 -1.1,0.6 -2.1,1.8 -2.5,3.1 -3.5,-1.8 -7.8,-1.8 -10.7,1.3 -1.9,2 -2.3,4.9 -1.4,7.3 -1.1,-0.1 -2.2,0 -3.3,0.4 -2.3,0.9 -4.3,3 -4.6,5.5 -0.3,2.7 1.5,5 3.6,6.5 0.9,0.6 1.9,1.1 2.9,1.5 -1,0.6 -1.8,1.4 -2.5,2.3 -1.6,2.3 -1.2,5.4 0.8,7.3 3.7,3.7 9.3,2.7 13,-0.3 2.5,2.5 4.8,4.2 5.7,4.8 0.2,0.2 0.4,0.2 0.7,0.2 0.2,0 0.4,-0.1 0.7,-0.2 0.9,-0.7 3.7,-2.7 6.5,-5.7 1.8,0.8 3.7,1.2 5.6,1.2 2.6,0 5.7,-0.7 7.5,-2.6 2,-2.2 1.2,-5.4 -0.3,-7.7 -0.6,-1.1 -1.5,-2 -2.5,-2.7 z m 2.8,-7.6 c 0.8,3.4 -2.9,5.2 -5.8,5.7 v 0 C 39.3,30 40,25.6 36.2,21.2 c 3,-0.2 8.1,-0.3 9,3.5 z M 25.6,12 c 2.3,-0.7 4.9,-1.1 7.3,-0.6 1.8,0.4 3.7,1.5 4.3,3.4 0.5,1.6 -0.2,3.4 -1.7,4.1 -0.4,0.2 -0.6,0.5 -0.6,0.9 L 34.6,19.5 C 31.7,17 29,15.9 26.5,15.5 26,15.4 25.4,15.4 24.9,15.4 c -0.4,0 -0.7,0 -1.1,0.1 L 23.7,15.4 C 22,13.9 24.4,12.3 25.6,12 Z m -13.3,4 c 2.5,-2.2 5.8,-1.6 8.3,0.2 -4.2,1.6 -7,4.9 -7.5,5.5 0,0.1 -0.1,0.1 -0.1,0.1 v 0 l -0.6,0.9 C 11.5,22.1 10.9,21.1 10.7,20 10.4,18.4 11.1,17 12.3,16 Z M 6.6,32.6 C 5.1,31.7 3.3,30.2 3.3,28.3 c 0,-1.6 1.4,-3 2.9,-3.5 1.7,-0.6 3.5,-0.3 5.1,0.3 -0.6,1.6 -0.9,3.3 -0.8,5.3 0.1,1.1 0.3,2.2 0.6,3.3 -1.6,0 -3.1,-0.4 -4.5,-1.1 z m 1,11 C 6.2,42.4 6,40.6 7.1,39.1 c 1.2,-1.5 3.2,-2.3 5,-2.9 1.2,2.5 2.9,4.9 4.7,6.9 -2.6,2.1 -6.5,2.9 -9.2,0.5 z m 35.2,-2.2 c -2.5,1.8 -6,1.7 -8.9,0.7 2.1,-2.5 4,-5.5 4.9,-8.7 1.5,0.5 2.8,1.5 3.8,2.9 1.1,1.4 2.1,3.8 0.2,5.1 z"
   id="path18"
   inkscape:connector-curvature="0"
   sodipodi:nodetypes="ccccccccccccccccccccsccscccccccccccccccsccccccccccccsccccccccccccccc" />
</g>
</svg>