<?xml version="1.0" encoding="UTF-8" standalone="no"?>
<!-- Generator: Adobe Illustrator 26.0.2, SVG Export Plug-In . SVG Version: 6.00 Build 0)  -->

<svg
   xmlns:dc="http://purl.org/dc/elements/1.1/"
   xmlns:cc="http://creativecommons.org/ns#"
   xmlns:rdf="http://www.w3.org/1999/02/22-rdf-syntax-ns#"
   xmlns:svg="http://www.w3.org/2000/svg"
   xmlns="http://www.w3.org/2000/svg"
   xmlns:sodipodi="http://sodipodi.sourceforge.net/DTD/sodipodi-0.dtd"
   xmlns:inkscape="http://www.inkscape.org/namespaces/inkscape"
   version="1.1"
   id="Calque_1"
   x="0px"
   y="0px"
   viewBox="0 0 50 50"
   style="enable-background:new 0 0 50 50;"
   xml:space="preserve"
   sodipodi:docname="fun-hair-2.svg"
   inkscape:version="0.92.4 (5da689c313, 2019-01-14)"><metadata
   id="metadata11"><rdf:RDF><cc:Work
       rdf:about=""><dc:format>image/svg+xml</dc:format><dc:type
         rdf:resource="http://purl.org/dc/dcmitype/StillImage" /></cc:Work></rdf:RDF></metadata><defs
   id="defs9" /><sodipodi:namedview
   pagecolor="#ffffff"
   bordercolor="#666666"
   borderopacity="1"
   objecttolerance="10"
   gridtolerance="10"
   guidetolerance="10"
   inkscape:pageopacity="0"
   inkscape:pageshadow="2"
   inkscape:window-width="756"
   inkscape:window-height="480"
   id="namedview7"
   showgrid="false"
   inkscape:zoom="4.72"
   inkscape:cx="25.317797"
   inkscape:cy="25"
   inkscape:window-x="0"
   inkscape:window-y="0"
   inkscape:window-maximized="0"
   inkscape:current-layer="Calque_1" />
<style
   type="text/css"
   id="style2">
</style>
<path
   class="st0"
   d="m 46.4,18.1 c -0.5,-0.6 -0.9,-1.1 -0.9,-1.9 0.1,-0.8 0.3,-1.6 0.4,-2.4 0.2,-1.5 0,-3 -1,-4.2 C 42.6,6.8 38.9,7.3 35.7,7.3 35.2,7.3 34.3,7.4 34,6.9 33.7,6.3 33.9,5.3 33.7,4.7 33.3,3.4 32.3,2.5 31,2 29.7,1.5 28.2,1.5 26.9,1.9 25.3,2.3 23.9,3.2 22.4,3.7 21.8,3.9 20.8,4.2 20.3,3.7 19.8,3.3 19.7,2.3 19.3,1.8 18.5,0.6 17,0.2 15.6,0.4 11.9,1 11.5,4.8 10.7,7.7 10.5,8.6 10.2,9.4 9.5,10 8.8,10.6 8,11 7.3,11.5 6,12.5 5,13.9 4.6,15.6 4.2,17.2 4.3,18.8 5,20.3 c 0.3,0.8 0.8,1.5 1.4,2.1 0.5,0.6 1,1.2 1,2.1 0,0.5 0.1,0.8 0.3,1 v 1.2 c 0.6,11.3 13.9,21.2 16.3,23 0.3,0.2 0.5,0.2 0.8,0.3 0.3,0 0.5,-0.1 0.8,-0.3 2.3,-1.7 13.9,-10.3 16,-20.6 0.2,0 0.4,0 0.7,-0.1 1.5,-0.2 2.9,-1 3.9,-2.1 2.4,-2.5 2.3,-6.2 0.2,-8.8 z m -1.4,5 c -0.3,1.4 -1.4,2.6 -2.8,2.9 h -0.1 c 0,-1.9 -0.2,-7 -5.4,-11.8 v 0 0 C 36.6,14.1 36.5,14 36.3,13.9 32.9,11 29.7,9.6 26.7,9.2 26,9 25.3,9 24.7,9 24,9 23.3,9.1 22.6,9.2 c -6.6,1 -11.1,6.5 -11.8,7.3 0,0.1 -0.1,0.1 -0.1,0.1 v 0 C 10,17.7 9.3,19 8.7,20.4 8.2,19.6 7.7,18.8 7.6,17.8 7.5,16.7 7.8,15.6 8.4,14.7 c 0.8,-1.1 2.2,-1.6 3.3,-2.5 1,-0.9 1.7,-2.1 2,-3.4 0.4,-1.4 0.4,-3 1.1,-4.3 0.3,-0.7 1.3,-1.8 2.1,-1.1 0.4,0.3 0.5,1.2 0.7,1.6 0.4,0.6 0.9,1.1 1.6,1.4 2.9,1.3 5.6,-0.8 8.3,-1.6 0.9,-0.3 1.9,-0.4 2.8,0.1 1,0.5 0.6,1.9 0.9,2.9 0.9,3.3 5.1,2.4 7.6,2.4 1.2,0 2.5,0.1 3.4,0.9 1.1,0.9 0.7,2.2 0.4,3.4 -0.3,1.6 -0.4,3.1 0.6,4.5 1,1.4 2.1,2.3 1.8,4.1 z"
   id="path4"
   inkscape:connector-curvature="0"
   sodipodi:nodetypes="ccccsccscsccccsccccscccccccccccccccccsccccccccccccccccsccsc" />
</svg>