<?xml version="1.0" encoding="utf-8"?>
<!-- Generator: Adobe Illustrator 26.0.2, SVG Export Plug-In . SVG Version: 6.00 Build 0)  -->
<svg version="1.1" id="Calque_1" xmlns="http://www.w3.org/2000/svg" xmlns:xlink="http://www.w3.org/1999/xlink" x="0px" y="0px"
	 viewBox="0 0 50 50" style="enable-background:new 0 0 50 50;" xml:space="preserve">
<style type="text/css">
</style>
<path class="st0" d="M42.4,34.4c1.6-1.2,2.2-3.7,0.5-5.3c-0.2-0.1-0.3-0.3-0.5-0.4c-1.5-0.9-2.5-1.5-3.3-3c2.7-0.6,3.8-4.9,1-6.2
	c-2.1-0.9-4-2.1-5.5-3.7c0-0.1-0.1-0.2-0.1-0.3c0.9-0.4,1.7-1.1,2-2.1c0.5-1.9-0.7-3.4-2.3-4.1c-0.6-0.2-1.4-0.8-2-1.2
	c-0.2-0.5-0.4-1.1-0.6-1.6c-0.8-1.9-1.7-3.6-3.1-4.6c-0.3-0.4-0.7-0.7-1.2-0.9c0,0-0.1,0-0.1-0.1c-1.8-0.8-3.7-0.4-4.6,1.2
	c-0.2,0.2-0.4,0.4-0.5,0.7c-0.3,0.6-0.7,1.1-1,1.7c-1.8,1.3-3.8,2.3-5.9,3c-1.3,0.5-2,1.5-2.2,2.6c-0.2,1.1,0.1,2.2,0.7,3
	c-1.2,1-2.5,1.9-4,2.8C7,17.4,7.7,21.1,9.9,22c-0.8,1-1.8,1.9-3.1,2.5c-0.2,0.1-0.4,0.3-0.6,0.4c-1.7,1.5-1.1,4.3,0.7,5.4
	c-0.9,1.7-1.7,3.4-2.5,5.1c-1.1,2.4,0.2,4.8,2.9,5.1c2.3,0.2,4.5,0.2,6.8,0.2c4.1,4.6,8.6,8,10,9c0.3,0.2,0.6,0.3,0.8,0.3
	c0.3,0,0.6-0.1,0.8-0.3c1.4-1,5.6-4.1,9.6-8.5c1.9-0.1,3.9-0.3,5.8-0.6c2-0.4,3.2-3.3,2-4.9C42.9,35.2,42.7,34.8,42.4,34.4z"/>
</svg>
