<?xml version="1.0" encoding="utf-8"?>
<!-- Generator: Adobe Illustrator 26.0.2, SVG Export Plug-In . SVG Version: 6.00 Build 0)  -->
<svg version="1.1" id="Calque_1" xmlns="http://www.w3.org/2000/svg" xmlns:xlink="http://www.w3.org/1999/xlink" x="0px" y="0px"
	 viewBox="0 0 50 50" style="enable-background:new 0 0 50 50;" xml:space="preserve">
<style type="text/css">
</style>
<path class="st0" d="M46.6,37.7c-1.1-4.3-3.1-7.7-5.9-10.4c1.4-0.9,2.3-1.6,2.3-1.6c0.4-0.4,0.7-0.9,0.7-1.4c0-0.6-0.2-1.1-0.7-1.5
	c-0.8-0.7-1.5-1.3-2.3-1.8c4.1-4.8,4.9-10.3,4.9-10.5c0.1-0.5-0.1-1.1-0.4-1.5c-0.4-0.4-0.9-0.6-1.4-0.7c-2.7,0-5.2,0.4-7.4,1.2
	c-0.1-1-0.2-1.6-0.3-1.6c-0.1-0.5-0.5-1-1-1.3c-0.5-0.3-1.1-0.3-1.6-0.1c-1.5,0.6-2.8,1.2-4,2c-1.6-4.8-4.4-7.8-4.5-8
	C24.6,0.2,24,0,23.5,0c-0.6,0-1.1,0.3-1.4,0.7c-1.9,2.4-3.3,5-4,7.6c-2.2-0.9-3.8-1.2-3.8-1.2c-0.5-0.1-1.1,0.1-1.5,0.4
	C12.2,7.9,12,8.4,12,9c0,0.6,0,1.2,0,1.8C7.8,9.5,4.3,9.9,4.1,9.9C3.5,10,3,10.3,2.7,10.7c-0.3,0.5-0.4,1-0.3,1.6
	c1.2,4.5,3.3,8.1,6.4,10.8c-1.1,1-1.6,1.7-1.7,1.8c-0.3,0.4-0.5,1-0.4,1.5c0.1,0.5,0.4,1,0.9,1.3c0.4,0.2,0.8,0.4,1.2,0.6
	c-4.5,4.9-5.4,10.8-5.5,11.1C3.4,40,3.5,40.6,3.9,41c0.4,0.4,0.9,0.7,1.4,0.7c0,0,0,0,0,0c3.6,0,6.9-0.7,9.7-2.2
	c0.1,0.8,0.3,1.3,0.3,1.4c0.2,0.5,0.5,1,1,1.2c0.5,0.2,1.1,0.2,1.6,0c0.5-0.2,1-0.5,1.5-0.7c1.4,4.7,4,7.8,4.1,8
	c0.4,0.4,0.9,0.7,1.4,0.7h0c0.6,0,1.1-0.2,1.4-0.7c2.1-2.4,3.6-5,4.4-7.6c1,0.3,1.6,0.5,1.7,0.5c0.5,0.1,1.1,0,1.6-0.3
	c0.4-0.3,0.7-0.8,0.8-1.4c0-0.7,0.1-1.4,0.1-2.1c5.1,2.1,9.8,1.7,10.1,1.6c0.6-0.1,1.1-0.4,1.4-0.8C46.7,38.8,46.8,38.2,46.6,37.7z"
	/>
</svg>
