<?xml version="1.0" encoding="UTF-8" standalone="no"?>
<!-- Generator: Adobe Illustrator 26.0.2, SVG Export Plug-In . SVG Version: 6.00 Build 0)  -->

<svg
   xmlns:dc="http://purl.org/dc/elements/1.1/"
   xmlns:cc="http://creativecommons.org/ns#"
   xmlns:rdf="http://www.w3.org/1999/02/22-rdf-syntax-ns#"
   xmlns:svg="http://www.w3.org/2000/svg"
   xmlns="http://www.w3.org/2000/svg"
   xmlns:sodipodi="http://sodipodi.sourceforge.net/DTD/sodipodi-0.dtd"
   xmlns:inkscape="http://www.inkscape.org/namespaces/inkscape"
   version="1.1"
   id="Calque_1"
   x="0px"
   y="0px"
   viewBox="0 0 50 50"
   style="enable-background:new 0 0 50 50;"
   xml:space="preserve"
   sodipodi:docname="handsup-lollipop.svg"
   inkscape:version="0.92.4 (5da689c313, 2019-01-14)"><metadata
   id="metadata11"><rdf:RDF><cc:Work
       rdf:about=""><dc:format>image/svg+xml</dc:format><dc:type
         rdf:resource="http://purl.org/dc/dcmitype/StillImage" /></cc:Work></rdf:RDF></metadata><defs
   id="defs9" /><sodipodi:namedview
   pagecolor="#ffffff"
   bordercolor="#666666"
   borderopacity="1"
   objecttolerance="10"
   gridtolerance="10"
   guidetolerance="10"
   inkscape:pageopacity="0"
   inkscape:pageshadow="2"
   inkscape:window-width="1920"
   inkscape:window-height="1043"
   id="namedview7"
   showgrid="false"
   inkscape:zoom="18.88"
   inkscape:cx="15.803453"
   inkscape:cy="23.099365"
   inkscape:window-x="0"
   inkscape:window-y="0"
   inkscape:window-maximized="1"
   inkscape:current-layer="Calque_1" />
<style
   type="text/css"
   id="style2">
</style>
<path
   class="st0"
   d="M 45.9,16.8 C 45.2,11.5 42.4,7.1 38.1,4.4 35.3,2 31.9,0.7 28.2,0.2 21.2,-0.6 13.6,2.5 10,8.6 7.7,12.3 7.1,17.1 7.4,21.4 c 0.1605107,3.541258 0.7556375,6.893348 1.7,10.1 0.9,2.9 2.2,6 4.2,8.4 2.1,2.4 5.2,3.7 8.4,4.3 0.1,0.9 0.3,1.8 0.4,2.6 0.1,0.9 0.4,1.9 1.1,2.5 0.7,0.6 1.7,0.8 2.6,0.5 0.9,-0.4 1.5,-1.1 1.7,-2.1 0.1,-0.6 0.1,-1.2 0.1,-1.8 v -1.5 c 0.7,-0.1 1.3,-0.1 1.9,-0.2 5.6,-0.9 10,-5.5 12.3,-10.5 1.2,-2.6 2.2,-5.4 3.1,-8.1 1,-2.9 1.4,-5.8 1,-8.8 z M 26.5,47.4 c -0.1,0.8 -0.9,1.4 -1.7,1.3 -1,-0.2 -1.3,-1.1 -1.4,-2 -0.1,-0.8 -0.3,-1.6 -0.4,-2.4 1.1,0.1 2.2,0.2 3.3,0.1 0,0.2 0.1,0.3 0.2,0.4 v 0.8 c 0,0.7 0.1,1.3 0,1.8 z"
   id="path4"
   inkscape:connector-curvature="0"
   sodipodi:nodetypes="cccccccccsccscccccccccccsc" />
</svg>