<?xml version="1.0" encoding="utf-8"?>
<!-- Generator: Adobe Illustrator 26.0.2, SVG Export Plug-In . SVG Version: 6.00 Build 0)  -->
<svg version="1.1" id="Calque_1" xmlns="http://www.w3.org/2000/svg" xmlns:xlink="http://www.w3.org/1999/xlink" x="0px" y="0px"
	 viewBox="0 0 50 50" style="enable-background:new 0 0 50 50;" xml:space="preserve">
<style type="text/css">
</style>
<path class="st0" d="M42.7,11.1c-1.6-3.2-4-5.8-6.9-7.8c-6-4.1-13.8-4.2-20-0.7C8.8,6.6,5.5,14.2,6.2,22c0.3,3.5,0.8,10.2,5.4,10.4
	c2.1,0.1,4.2-0.1,6.3-0.2c0,3.6,0.3,7.3,1.2,10.9c0.7,2.8,2.5,7,6.1,6.8c3.6-0.3,4-5.1,4.4-7.8c0.4-3.2,0.5-6.3,0.3-9.5
	c3,0.2,6.1,0.1,9.1-0.4l0.2,0c0.4,0,0.8-0.1,1.1-0.3c4.2-1,4.5-5,4.7-8.7C45,19,44.6,14.9,42.7,11.1z"/>
</svg>
