<?xml version="1.0" encoding="utf-8"?>
<!-- Generator: Adobe Illustrator 26.0.2, SVG Export Plug-In . SVG Version: 6.00 Build 0)  -->
<svg version="1.1" id="Calque_1" xmlns="http://www.w3.org/2000/svg" xmlns:xlink="http://www.w3.org/1999/xlink" x="0px" y="0px"
	 viewBox="0 0 50 50" style="enable-background:new 0 0 50 50;" xml:space="preserve">
<style type="text/css">
</style>
<path class="st0" d="M40.6,9c-0.4-0.9-0.9-1.8-1.6-2.6c-0.2-0.2-0.4-0.5-0.6-0.7c-2-2.6-4.4-4.7-7.7-5.4C27-0.4,23.4,0.3,20,1.6
	c-1.1,0.3-2.1,0.8-3.1,1.3c-3.4,1.8-6.1,4.8-7.5,8.4C8,14.9,8,19.1,8.9,22.9c1,4.3,3.1,8.3,5.5,12c1.7,2.6,3.4,5.1,5.3,7.6
	c0.5,1.2,1.3,2.3,2,3.3c0.9,1.3,1.8,2.6,2.7,3.9c0.2,0.3,0.5,0.4,0.8,0.2c0.1,0,0.1-0.1,0.2-0.1c0.3-0.2,0.6-0.6,0.8-0.9
	c0.3-0.4,0.7-0.9,1-1.3c1.3-1.7,2.6-3.5,3.7-5.4c2.4-3.7,4.5-7.5,6.6-11.3c1.1-1.9,2.2-3.8,3-5.8c0.2-0.5,0.4-1.1,0.6-1.6
	c0.6-1.6,0.9-3.3,1.1-5.1c0.2-1.9,0.4-3.8-0.1-5.6C41.8,11.4,41.3,10.2,40.6,9z M36.2,30.9c-1,1.8-2,3.6-3.1,5.4
	c-2.1,3.5-4.3,7-6.7,10.3c-0.3,0.4-0.7,0.9-1,1.3c0,0,0-0.1-0.1-0.1c-1.6-1.9-3.2-3.9-4.8-5.9c-0.1-0.2-0.1-0.3-0.2-0.5
	c-0.1-0.2-0.2-0.3-0.4-0.3c-0.9-1.2-1.7-2.3-2.5-3.5c-1.2-1.8-2.4-3.6-3.5-5.4c1.3,1.2,3.1,1.8,4.7,2.2c3.6,0.7,7.3,0.4,10.8-0.5
	c2.7-0.7,5.1-1.9,7.1-3.7C36.5,30.3,36.4,30.6,36.2,30.9z"/>
</svg>
