<?xml version="1.0" encoding="utf-8"?>
<!-- Generator: Adobe Illustrator 26.0.2, SVG Export Plug-In . SVG Version: 6.00 Build 0)  -->
<svg version="1.1" id="Calque_1" xmlns="http://www.w3.org/2000/svg" xmlns:xlink="http://www.w3.org/1999/xlink" x="0px" y="0px"
	 viewBox="0 0 50 50" style="enable-background:new 0 0 50 50;" xml:space="preserve">
<style type="text/css">
</style>
<path class="st0" d="M38.8,24.1c-0.8-3.8-3.3-7.3-5.6-10.3c-2-2.6-4.1-5.2-6.1-7.7c-0.4-1.3-0.9-2.7-1.6-3.8c-1.2-2-3.7-1.8-5.6-1.7
	c-0.4,0-0.9,0.1-1.3,0.1c-1,0-2.1,0-3.1,0c-2.1,0-4.3-0.1-6.4,0.1C6.2,1.2,5.7,3.3,5.1,5.4L5,5.8C3.1,13.1,2.5,18.9,3,24.5l0.5,0
	l0,0L3,24.5c0.2,2,0.4,4.3,2.2,5.7C6,30.8,7,31.1,8,31.1c1.8,2.4,4.1,3.6,6.6,3.2c0.8-0.1,1.5-0.4,2.1-0.8c1.3,1.4,2.8,2.2,4.4,2.3
	c0,0.4,0,0.8,0,1.2c0,1.7,0,3.4,0.1,5.1c0,0.5,0.1,0.9,0.2,1.4c-0.1,3,0.4,5,1.5,5.9c0.5,0.4,1.1,0.7,1.9,0.7c0.2,0,0.5,0,0.7-0.1
	c3.9-0.7,3.7-7.1,3.5-9.7l0.1-0.5c0.1-0.5,0.2-0.9,0.2-1.4c0.5-2.5,0.8-4.8,1-7c0.2-1.9,0.2-3.9,0.1-5.9c0.8,0.8,1.5,1.5,2.3,2
	c1.6,1.1,3.5,1.3,4.8,0.4C38.7,27.2,39.2,25.8,38.8,24.1z"/>
</svg>
