<?xml version="1.0" encoding="utf-8"?>
<!-- Generator: Adobe Illustrator 26.0.2, SVG Export Plug-In . SVG Version: 6.00 Build 0)  -->
<svg version="1.1" id="Calque_1" xmlns="http://www.w3.org/2000/svg" xmlns:xlink="http://www.w3.org/1999/xlink" x="0px" y="0px"
	 viewBox="0 0 50 50" style="enable-background:new 0 0 50 50;" xml:space="preserve">
<style type="text/css">
</style>
<path class="st0" d="M48.8,6.9C48,5,46.4,3.6,44.6,2.6c-0.1-0.1-0.3-0.2-0.5-0.2c-0.6-0.3-1.3-0.6-1.9-0.8c-1.7-0.6-3.5-0.9-5.2-1
	c-1.4-0.1-2.8,0-4.2,0.2c-1.7,0.2-3.3,0.6-4.9,1.3c-1.4,0.6-2.7,1.4-3.7,2.6c-0.2,0.1-0.3,0.3-0.5,0.4c-1.7-2.1-4.3-3.3-7.2-3.6
	C12.8,1.1,8.1,1.9,6.2,5.2c-0.6,1-1,2.2-1.1,3.4c0,0.1,0,0.2,0,0.2c-0.2,1.8,0.1,3.7,0.6,5.5c0.6,2.2,1.5,4.3,2.5,6.3
	c1.1,2.3,2.3,4.5,3.6,6.7c1.2,2.8,2.5,5.4,4,8.1c1.2,2.1,2.4,4.2,3.7,6.3c0.2,0.4,0.4,0.7,0.6,1c0.4,1.1,1.3,2,2,3c0.7,1,1.4,2,2,3
	c0.1,0.3,0.2,0.5,0.3,0.8c0.2,0.5,0.9,0.6,1.3,0.3c0.3-0.2,0.4-0.4,0.4-0.6c0.4-0.5,0.8-1.1,1.2-1.6c3.2-3.4,6.2-7.2,8.9-11
	c1.8-2.5,3.5-5,5.1-7.6c2-2.5,4.1-5,6-7.5C50.1,17.6,50.9,11.5,48.8,6.9z"/>
</svg>
