<?xml version="1.0" encoding="utf-8"?>
<!-- Generator: Adobe Illustrator 26.0.2, SVG Export Plug-In . SVG Version: 6.00 Build 0)  -->
<svg version="1.1" id="Calque_1" xmlns="http://www.w3.org/2000/svg" xmlns:xlink="http://www.w3.org/1999/xlink" x="0px" y="0px"
	 viewBox="0 0 50 50" style="enable-background:new 0 0 50 50;" xml:space="preserve">
<path d="M37.6,30c0,0-0.1,0.1-0.1,0.1C37.5,30.1,37.5,30.1,37.6,30z"/>
<polygon points="37.6,30 37.6,30 37.6,30 "/>
<path d="M25,36.8c-5,0-9.4-1.8-12.6-4.8c0,0,0,0,0,0c0.1,0,2.2,2.1,4.7,5c3.4,3.8,7.4,9.1,7.4,12.5c0,0.2,0.2,0.4,0.5,0.4
	c0,0,0,0,0,0c0.3,0,0.5-0.2,0.5-0.4c0-3.4,4-8.6,7.4-12.5c2.2-2.5,4.1-4.4,4.6-4.8C34.3,35.1,29.9,36.8,25,36.8z"/>
<path d="M25,0C15.2,0,7.3,7.9,7.3,17.7c0,4.8,1.9,9.1,5,12.3c3.2,3.3,7.7,5.3,12.6,5.3c4.9,0,9.3-2,12.5-5.2
	c0.1-0.1,0.1-0.1,0.1-0.1c0,0,0,0,0,0c3.1-3.2,5.1-7.6,5.1-12.4C42.6,7.9,34.7,0,25,0z"/>
</svg>
