<?xml version="1.0" encoding="utf-8"?>
<!-- Generator: Adobe Illustrator 26.0.2, SVG Export Plug-In . SVG Version: 6.00 Build 0)  -->
<svg version="1.1" id="Calque_1" xmlns="http://www.w3.org/2000/svg" xmlns:xlink="http://www.w3.org/1999/xlink" x="0px" y="0px"
	 viewBox="0 0 50 50" style="enable-background:new 0 0 50 50;" xml:space="preserve">
<style type="text/css">
	.st0{fill:none;stroke:#000000;stroke-linejoin:round;stroke-miterlimit:10;}
</style>
<path d="M37.6,30c0,0-0.1,0.1-0.1,0.1C37.5,30.1,37.5,30.1,37.6,30z"/>
<polygon points="37.6,30 37.6,30 37.6,30 "/>
<path class="st0" d="M25,37.6c-5,0-9.4-1.6-12.6-4.3c0,0,0,0,0,0c0.1,0,2.2,1.9,4.7,4.5c3.4,3.5,7.4,8.2,7.4,11.2
	c0,0.2,0.2,0.4,0.5,0.4c0,0,0,0,0,0c0.3,0,0.5-0.2,0.5-0.4c0-3,4-7.7,7.4-11.2c2.2-2.2,4.1-3.9,4.6-4.3C34.3,36.1,29.9,37.6,25,37.6
	z"/>
<path d="M25,0C15.2,0,7.3,7.9,7.3,17.7c0,4.8,1.9,9.1,5,12.3c3.2,3.3,7.7,5.3,12.6,5.3c4.9,0,9.3-2,12.5-5.2
	c0.1-0.1,0.1-0.1,0.1-0.1c0,0,0,0,0,0c3.1-3.2,5.1-7.6,5.1-12.4C42.6,7.9,34.7,0,25,0z"/>
</svg>
