<?xml version="1.0" encoding="utf-8"?>
<!-- Generator: Adobe Illustrator 26.0.2, SVG Export Plug-In . SVG Version: 6.00 Build 0)  -->
<svg version="1.1" id="Calque_1" xmlns="http://www.w3.org/2000/svg" xmlns:xlink="http://www.w3.org/1999/xlink" x="0px" y="0px"
	 viewBox="0 0 50 50" style="enable-background:new 0 0 50 50;" xml:space="preserve">
<path d="M37.6,30c0,0-0.1,0.1-0.1,0.1C37.5,30.1,37.5,30.1,37.6,30z"/>
<polygon points="37.6,30 37.6,30 37.6,30 "/>
<path d="M43.2,28.8C43.2,28.8,43.2,28.8,43.2,28.8C43.2,28.8,43.2,28.8,43.2,28.8z"/>
<path d="M43.2,28.8C43.2,28.7,43.2,28.7,43.2,28.8C43.2,28.7,43.2,28.7,43.2,28.8z"/>
<path d="M43.2,28.8C43.2,28.8,43.2,28.8,43.2,28.8C43.2,28.8,43.2,28.8,43.2,28.8z"/>
<path d="M43.2,28.7C43.2,28.7,43.2,28.6,43.2,28.7C43.2,28.6,43.2,28.7,43.2,28.7z"/>
<path d="M43.3,28.4C43.3,28.4,43.3,28.4,43.3,28.4C43.3,28.4,43.3,28.4,43.3,28.4z"/>
<path d="M43.3,28.4C43.3,28.2,43.3,28.2,43.3,28.4L43.3,28.4z"/>
<path d="M43.2,28.6c0-0.1,0-0.1,0-0.2C43.3,28.5,43.3,28.6,43.2,28.6z"/>
<path d="M25,0C15,0,6.8,6.9,6.8,15.5c0,0.1,0,0.2,0,0.4l0,0v13c0,0,0.8,5.2,7.2,5.3c1.8,0,4.3,0,7,0v11.1v1.2v1c0,0-0.1,2.6,3.9,2.6
	c4.1,0,3.9-2.4,3.9-2.4l0-2.4h0V34.2c3.8,0,6.8,0,6.8,0s6.3,0.5,7.5-5.3V15.5C43.2,6.9,35,0,25,0z"/>
</svg>
