<?xml version="1.0" encoding="utf-8"?>
<!-- Generator: Adobe Illustrator 26.0.2, SVG Export Plug-In . SVG Version: 6.00 Build 0)  -->
<svg version="1.1" id="Calque_1" xmlns="http://www.w3.org/2000/svg" xmlns:xlink="http://www.w3.org/1999/xlink" x="0px" y="0px"
	 viewBox="0 0 50 50" style="enable-background:new 0 0 50 50;" xml:space="preserve">
<path d="M37.6,30c0,0-0.1,0.1-0.1,0.1C37.5,30.1,37.5,30.1,37.6,30z"/>
<polygon points="37.6,30 37.6,30 37.6,30 "/>
<path d="M43.2,28.8C43.2,28.8,43.2,28.8,43.2,28.8C43.2,28.8,43.2,28.8,43.2,28.8z"/>
<path d="M43.2,28.8C43.2,28.7,43.2,28.7,43.2,28.8C43.2,28.7,43.2,28.7,43.2,28.8z"/>
<path d="M43.2,28.8C43.2,28.8,43.2,28.8,43.2,28.8C43.2,28.8,43.2,28.8,43.2,28.8z"/>
<path d="M43.2,28.7C43.2,28.7,43.2,28.6,43.2,28.7C43.2,28.6,43.2,28.7,43.2,28.7z"/>
<path d="M43.3,28.4C43.3,28.4,43.3,28.4,43.3,28.4C43.3,28.4,43.3,28.4,43.3,28.4z"/>
<path d="M43.3,28.4C43.3,28.2,43.3,28.2,43.3,28.4L43.3,28.4z"/>
<path d="M40.2,0H15.3c-0.6,0-1.2,0.2-1.6,0.6L8.6,4.8C8.1,5.3,7.8,5.9,7.7,6.6c0,0.2,0,0.4,0.1,0.6v27.2c0,0.7,0.6,1.3,1.3,1.3h12
	v9.5v1.2v1c0,0-0.1,2.6,3.9,2.6c4.1,0,3.9-2.4,3.9-2.4l0-2.4h0v-9.5h7.8c0,0,0.1,0,0.1,0c0.1,0,0.2,0,0.3,0c0.1,0,0.1,0,0.2,0
	c0.7-0.1,1.4-0.4,1.8-1.1l3.1-4.4c0.3-0.4,0.5-0.9,0.5-1.5V2.5C42.7,1.1,41.6,0,40.2,0z M40.2,28.8L38,32V6.8c0-0.7-0.6-1.3-1.3-1.3
	h-25l3.6-3h23.5h0.3c0.4,0,1.1,0.2,1.1,1.4V28.8z"/>
</svg>
