<?xml version="1.0" encoding="utf-8"?>
<!-- Generator: Adobe Illustrator 26.0.2, SVG Export Plug-In . SVG Version: 6.00 Build 0)  -->
<svg version="1.1" id="Calque_1" xmlns="http://www.w3.org/2000/svg" xmlns:xlink="http://www.w3.org/1999/xlink" x="0px" y="0px"
	 viewBox="0 0 50 50" style="enable-background:new 0 0 50 50;" xml:space="preserve">
<style type="text/css">
	.st0{fill:#FFFFFF;}
</style>
<g>
	<path d="M18.2,42.2c-0.5,0.4-0.8,0.8-0.9,0.9l6.3,6.3C24,49.8,24.5,50,25,50c0.5,0,1-0.2,1.4-0.6l6.3-6.3c-0.3-0.3-0.7-0.6-1-0.9
		H18.2z"/>
	<path d="M48.9,26.1c0-0.5-0.2-1-0.6-1.4L26.4,2.8c-0.7-0.7-2.1-0.8-2.8,0L1.7,24.7c-0.8,0.8-0.8,2,0,2.8L15.2,41
		c0.9-1,4.4-4.4,9.3-4.6c3.6-0.2,7,1.4,10.3,4.7l13.5-13.5C48.7,27.2,48.9,26.6,48.9,26.1z"/>
	<path d="M18.2,42.2h13.5c-2.3-2-4.6-2.9-7-2.9C21.8,39.5,19.5,41.1,18.2,42.2z"/>
	<path class="st0" d="M16.1,42.2c0,0,0-0.1,0.1-0.1L15.2,41c-0.1,0.1-0.2,0.2-0.2,0.3l2.3,1.9c0,0,0,0,0,0l-0.9-0.9H16.1z"/>
	<path class="st0" d="M33.9,42.2h-0.3l-0.9,0.9c0,0,0.1,0.1,0.1,0.1l2.1-2.1c-0.1-0.1-0.1-0.1-0.2-0.1l-1.1,1.1
		C33.8,42.1,33.8,42.2,33.9,42.2z"/>
	<path class="st0" d="M18.2,42.2h-1.8l0.9,0.9C17.4,43,17.7,42.7,18.2,42.2z"/>
	<path class="st0" d="M15.2,41l1.1,1.1c1.1-1.2,8.6-8.9,17.5,0l1.1-1.1c-3.2-3.2-6.7-4.8-10.3-4.7C19.6,36.6,16.1,40,15.2,41z"/>
	<path class="st0" d="M31.7,42.2c0.3,0.3,0.7,0.6,1,0.9l0.9-0.9H31.7z"/>
	<path class="st0" d="M33.9,42.2c0,0-0.1-0.1-0.1-0.1l-0.1,0.1H33.9z"/>
	<path class="st0" d="M16.4,42.2l-0.1-0.1c-0.1,0.1-0.1,0.1-0.1,0.1H16.4z"/>
</g>
</svg>
