<?xml version="1.0" encoding="UTF-8" standalone="no"?>
<!-- Generator: Adobe Illustrator 26.0.2, SVG Export Plug-In . SVG Version: 6.00 Build 0)  -->

<svg
   xmlns:dc="http://purl.org/dc/elements/1.1/"
   xmlns:cc="http://creativecommons.org/ns#"
   xmlns:rdf="http://www.w3.org/1999/02/22-rdf-syntax-ns#"
   xmlns:svg="http://www.w3.org/2000/svg"
   xmlns="http://www.w3.org/2000/svg"
   xmlns:sodipodi="http://sodipodi.sourceforge.net/DTD/sodipodi-0.dtd"
   xmlns:inkscape="http://www.inkscape.org/namespaces/inkscape"
   version="1.1"
   id="Calque_1"
   x="0px"
   y="0px"
   viewBox="0 0 50 50"
   style="enable-background:new 0 0 50 50;"
   xml:space="preserve"
   sodipodi:docname="shape-leaf.svg"
   inkscape:version="0.92.4 (5da689c313, 2019-01-14)"><metadata
   id="metadata23"><rdf:RDF><cc:Work
       rdf:about=""><dc:format>image/svg+xml</dc:format><dc:type
         rdf:resource="http://purl.org/dc/dcmitype/StillImage" /></cc:Work></rdf:RDF></metadata><defs
   id="defs21" /><sodipodi:namedview
   pagecolor="#ffffff"
   borderopacity="1"
   objecttolerance="10"
   gridtolerance="10"
   guidetolerance="10"
   inkscape:pageopacity="0"
   inkscape:pageshadow="2"
   inkscape:window-width="756"
   inkscape:window-height="480"
   id="namedview19"
   showgrid="false"
   inkscape:zoom="4.72"
   inkscape:cx="25.317797"
   inkscape:cy="25"
   inkscape:window-x="0"
   inkscape:window-y="0"
   inkscape:window-maximized="0"
   inkscape:current-layer="Calque_1" />
<path
   d="M37.6,30c0,0-0.1,0.1-0.1,0.1C37.5,30.1,37.5,30.1,37.6,30z"
   id="path2" />
<polygon
   points="37.6,30 37.6,30 37.6,30 "
   id="polygon4" />
<path
   d="M43.2,28.8C43.2,28.8,43.2,28.8,43.2,28.8C43.2,28.8,43.2,28.8,43.2,28.8z"
   id="path6" />
<path
   d="M43.2,28.8C43.2,28.7,43.2,28.7,43.2,28.8C43.2,28.7,43.2,28.7,43.2,28.8z"
   id="path8" />
<path
   d="M43.2,28.8C43.2,28.8,43.2,28.8,43.2,28.8C43.2,28.8,43.2,28.8,43.2,28.8z"
   id="path10" />
<path
   d="M43.3,28.4C43.3,28.4,43.3,28.4,43.3,28.4C43.3,28.4,43.3,28.4,43.3,28.4z"
   id="path12" />
<path
   d="M43.3,28.4C43.3,28.2,43.3,28.2,43.3,28.4L43.3,28.4z"
   id="path14" />
<path
   d="m 0,36.676272 c 0,0 15.9,13.3 25,13.2 9.1,-0.1 25,-13.2 25,-13.2 0,0 0.6,-10.2 -8.6,-6.1 0,0 1.3,-11.3 -8.1,-10.4 0,0 -3.3,-6.7 -8,-6.7 -4.7,0 -8.1,7.3 -8.1,7.3 0,0 -8.2,-1.4 -8.8,9.6 0,0 -8.4,-3.9 -8.4,6.3 z"
   id="path16"
   inkscape:connector-curvature="0" />
</svg>