<?xml version="1.0" encoding="utf-8"?>
<!-- Generator: Adobe Illustrator 26.0.2, SVG Export Plug-In . SVG Version: 6.00 Build 0)  -->
<svg version="1.1" id="Calque_1" xmlns="http://www.w3.org/2000/svg" xmlns:xlink="http://www.w3.org/1999/xlink" x="0px" y="0px"
	 viewBox="0 0 50 50" style="enable-background:new 0 0 50 50;" xml:space="preserve">
<path d="M37.6,30c0,0-0.1,0.1-0.1,0.1C37.5,30.1,37.5,30.1,37.6,30z"/>
<polygon points="37.6,30 37.6,30 37.6,30 "/>
<path d="M43.2,27l-0.1-10c0-0.4,0.1-0.9,0.1-1.3c0-0.6,0-1.1-0.1-1.6l0-0.2l0,0C42,6,34.3,0,25,0C15.6,0,7.8,6.2,6.9,14.1h0l0,0
	c-0.1,0.5-0.1,1-0.1,1.6c0,0.4,0,0.8,0.1,1.2L6.8,27c0,0,0,0.1,0,0.1c0,0,0,0,0,0.1l0,0.6h0c0.4,8.3,8.4,14.9,18.2,14.9
	s17.7-6.6,18.2-14.9h0l0-0.6c0,0,0-0.1,0-0.1C43.2,27,43.2,27,43.2,27z"/>
<circle cx="25" cy="48.6" r="1.4"/>
<rect x="23.6" y="40.2" width="2.8" height="8.3"/>
</svg>
