<?xml version="1.0" encoding="utf-8"?>
<!-- Generator: Adobe Illustrator 26.0.2, SVG Export Plug-In . SVG Version: 6.00 Build 0)  -->
<svg version="1.1" id="Calque_1" xmlns="http://www.w3.org/2000/svg" xmlns:xlink="http://www.w3.org/1999/xlink" x="0px" y="0px"
	 viewBox="0 0 50 50" style="enable-background:new 0 0 50 50;" xml:space="preserve">
<path d="M26.2,42.3V29.1c7.4-0.6,13.1-6.8,13.1-14.3c0-7.9-6.4-14.3-14.3-14.3c-7.9,0-14.3,6.4-14.3,14.3c0,7.5,5.8,13.7,13.1,14.3
	v13.2C22.1,37.9,18.2,33.2,9,34c0,0,3.2,10.1,16,16c0,0,14.5-5.8,16.4-16C41.3,34,30,32.5,26.2,42.3z M25,47.8L25,47.8
	c0.1,0.3,0,0.5,0,0.8C25,48.5,25,48.2,25,47.8z"/>
</svg>
