<?xml version="1.0" encoding="utf-8"?>
<!-- Generator: Adobe Illustrator 26.0.2, SVG Export Plug-In . SVG Version: 6.00 Build 0)  -->
<svg version="1.1" id="Calque_1" xmlns="http://www.w3.org/2000/svg" xmlns:xlink="http://www.w3.org/1999/xlink" x="0px" y="0px"
	 viewBox="0 0 50 50" style="enable-background:new 0 0 50 50;" xml:space="preserve">
<path d="M47.8,30.8c-0.1-0.5-0.4-0.9-0.9-1.1l-5.3-2c2.6-2.9,4.2-6.8,4.2-11.1c0-9.2-7.4-16.6-16.6-16.6c-9.2,0-16.6,7.4-16.6,16.6
	L4,13.3c-0.6-0.2-1.2,0-1.6,0.4c-0.4,0.5-0.4,1.1-0.1,1.6l21.5,34c0.2,0.3,0.6,0.6,0.9,0.6c0.1,0,0.1,0,0.2,0c0.3,0,0.6-0.1,0.9-0.3
	l21.5-17.6C47.7,31.8,47.9,31.3,47.8,30.8z"/>
</svg>
