<?xml version="1.0" encoding="utf-8"?>
<!-- Generator: Adobe Illustrator 26.0.2, SVG Export Plug-In . SVG Version: 6.00 Build 0)  -->
<svg version="1.1" id="Calque_1" xmlns="http://www.w3.org/2000/svg" xmlns:xlink="http://www.w3.org/1999/xlink" x="0px" y="0px"
	 viewBox="0 0 50 50" style="enable-background:new 0 0 50 50;" xml:space="preserve">
<path d="M45.9,21.7c0-0.1,0-0.2,0-0.4c0-1.7-0.2-3.3-0.5-4.9c-0.1-0.4-0.2-0.8-0.3-1.2c0,0,0,0,0,0c-1.6-5.9-6.1-10.7-11.9-13
	c-2-1-4-1.6-6-1.9c-0.8-0.1-1.5-0.1-2.3-0.1c-0.9,0-1.7,0.1-2.5,0.2C14.3,1.6,8.9,8,7.9,9.2c0,0-0.1,0.1-0.1,0.1l0,0
	c-2.7,3.7-4,7.9-3.7,12.5c0.7,12.6,14,23.6,19.7,27.8c0.3,0.2,0.7,0.4,1.2,0.4c0.5,0,0.9-0.2,1.2-0.4c5.7-4.1,19-15.2,19.7-27.8
	L45.9,21.7z M25.6,48.8C25.5,48.9,25.2,49,25,49c-0.3,0-0.5-0.1-0.6-0.2C21,46.3,11.7,39,7.4,30c3.6,5.8,10.2,9.7,17.8,9.7
	c6.8,0,12.8-3.1,16.5-7.9C37.1,39.9,28.8,46.5,25.6,48.8z"/>
</svg>
