<?xml version="1.0" encoding="utf-8"?>
<!-- Generator: Adobe Illustrator 26.0.2, SVG Export Plug-In . SVG Version: 6.00 Build 0)  -->
<svg version="1.1" id="Calque_1" xmlns="http://www.w3.org/2000/svg" xmlns:xlink="http://www.w3.org/1999/xlink" x="0px" y="0px"
	 viewBox="0 0 50 50" style="enable-background:new 0 0 50 50;" xml:space="preserve">
<style type="text/css">
	.st1{stroke-width:4;stroke-linejoin:round;stroke-miterlimit:10;}
	.st3{fill:#FFFFFF;}
</style>
<path d="M-34.3,76.9c-1.8-1.3-6-5.6-12.1-5.5c0,0,0.3-15.9-15.9-17.3c-16.2-1.4-19.3,15.3-19.4,18c0,0-11.7-0.7-16.8,5.1
	c-4.6,5.2-7.2,13-2.7,18.1c4.3,2.2,9.5,2.2,14.2,2.6c15.9,0.1,42.6-0.4,42.6-0.4s11.1-0.1,12.7-7.7C-30.5,83.1-32.5,78.2-34.3,76.9z
	"/>
<path d="M-137.1,53.9c-1.4-3-3.5-5.6-6-7.7c-2.4-1.9-5.4-3.8-8.6-3.6c-0.8-3.6-1.8-7.2-4.4-9.9c-2.8-3-7.2-4.1-11.1-4.6
	c-8.4-1.1-17.2,0.8-23.8,6.2c-3.1,2.6-5.5,5.8-7.1,9.5c-3.9-0.6-7.8-0.4-11.5,0.7c-3.5,1.1-6.8,2.9-8.7,6.1
	c-3.6,6.1-1.7,13.6,2.4,18.8c2.4,3.1,5.5,5.5,8.8,7.7c0.1,0.1,0.2,0.2,0.4,0.3c0.2,0.1,0.5,0.3,0.7,0.4c0.5,0.3,1.1,0.1,1.3-0.4
	c13.3,0.1,26.7,1.5,39.8-0.4c1.9,0.1,3.8,0.1,5.7,0c3.7-0.1,7.4-0.4,10.9-1.8c3.1-1.3,5.7-3.2,8.2-5.4c2.4-2.1,5.3-4,5.2-7.5
	C-135.1,59.4-135.9,56.5-137.1,53.9z M-139.4,66.4c-1.2,1.1-2.3,2.1-3.5,3.1c-2.5,2.1-5.3,3.8-8.5,4.6c-2.5,0.7-5.1,0.9-7.8,0.9
	c-0.1-0.5-0.5-1-1.2-0.9c-1.5,0.3-3.1,0.6-4.6,0.9c-5.9-0.2-11.7-0.7-17.6-0.8c-7.9-0.1-15.7,0.3-23.5,1.2
	c-6.4-4.2-12.7-10.3-12-18.6c0.3-4,2.4-7.4,6-9.2c4.4-2.2,9.6-2.7,14.4-1.8c0.6,0.1,1-0.2,1.2-0.7c2.6-6.6,8.4-11.6,15-13.9
	c3.8-1.3,7.8-1.7,11.8-1.5c3.8,0.2,8.1,0.9,11.2,3.3c3.3,2.6,4.3,7,5.1,10.9c0.1,0.6,0.7,0.8,1.2,0.7c2.9-0.6,6.2,1.6,8.3,3.4
	c2.1,1.8,3.8,4,5,6.5c1.2,2.4,2,5.2,2,7.9C-137,64.3-138.2,65.3-139.4,66.4z"/>
<path d="M-162.5,79.4c-13.6,0.3-27.1,0.7-40.7,1c-0.7,0-1,0.7-0.9,1.2c0,0.3,0.1,0.6,0.5,0.8c10.4,4.5,18,13.1,25.3,21.5
	c0.5,0.5,1.2,0.3,1.6-0.2c5.2-7.5,10.3-15,15.1-22.8C-161.3,80.2-161.8,79.3-162.5,79.4z M-177.7,101.5
	c-6.4-7.2-13.1-14.6-21.6-19.2c11.6-0.3,23.3-0.6,34.9-0.9C-168.7,88.2-173.1,94.9-177.7,101.5z"/>
<path d="M-161.4,229.9c12.4,16.5,28.6,28.6,33.1,31.8c0.7,0.5,1.5,0.7,2.3,0.8c0.7,0,1.5-0.2,2.3-0.8c4.7-3.5,22.6-16.8,35.2-34.7
	C-104,230.7-141.4,234.7-161.4,229.9z"/>
<path d="M-77.7,200.9c-0.1-0.3-0.2-0.5-0.3-0.8c-4.1-9.4-17-7.3-17-7.3s-4.5-18.2-26.9-17.2c-22.5,1-26.9,18.8-26.9,18.8
	s-12.1-7.8-23,3.5c-1,1-1.8,2-2.4,3c-6.6,10.1,2.4,19,2.4,19c2.3,2.1,5.9,3.7,10.5,4.8c20,4.9,57.5,0.9,72.9-2.8
	c2.9-0.7,5-1.4,6.1-2C-74.2,215.5-73.9,209.9-77.7,200.9z"/>
<path class="st0" d="M163.1,110.1c-0.1-0.3-0.2-0.6-0.4-0.9c-5-11.5-20.8-8.9-20.8-8.9s-5.4-22.2-32.9-21c-27.4,1.2-32.9,23-32.9,23
	s-14.7-9.5-28.1,4.2c-1.2,1.2-2.2,2.4-2.9,3.6c-8.1,12.3,2.9,23.2,2.9,23.2c2.8,2.6,7.2,4.5,12.8,5.8c24.4,6,70.1,1.1,89-3.4
	c3.5-0.8,6.1-1.7,7.4-2.4C167.3,127.9,167.7,121.1,163.1,110.1z"/>
<path class="st1" d="M88,147.4c0,0,27,1.3,43.8-1.3l-22,25.4L88,147.4z"/>
<path class="st1" d="M197.1,143.2c0,0,27,1.3,43.8-1.3l-22,25.4L197.1,143.2z"/>
<path class="st2" d="M255.9,80.9c1.7-1.7,1.1-4.2-0.7-5.5l-28.1-19.6c-3.2-2.2-5.7-4.4-9.6-2.6c-3.5,1.6-7,3.7-10.4,5.8
	c0-0.1,0-0.2-0.1-0.4c-0.2-1-0.4-2.3-1.1-3c-0.8-0.9-2.1-0.7-3.2-0.7c-0.9,0-1.9,0-2.8,0.1c-0.9,0.1-1.9,0.1-2.8,0.3
	c-1,0.1-2.1,0.2-3.1,0.5c-0.6,0.2-1.2,0.6-1.5,1.2c-0.3,0.6-0.3,1.3-0.4,1.9c-0.1,0.9-0.2,1.9-0.3,2.8c-0.1,1.1-0.2,2.2-0.1,3.3
	c0,0.2,0.1,0.4,0.1,0.7c-0.3,0.5-0.7,1-1.4,1.6c-4.1,3.7-9.4,6.5-14,9.7c-2.6,1.8-2,6.6,1.6,6.5c0.2,16.7,0.7,33.3,1.5,50
	c-0.1,0.5-0.1,1.1,0.1,1.6c0,0.1,0,0.1,0,0.2c0.1,2.1,1.6,3.2,3.3,3.3c0.5,0.5,1.3,0.7,2.2,0.7c2.5-0.1,4.9-0.3,7.4-0.5
	c0.8,0,1.6-0.1,2.4-0.2c7.2,0.3,14.4,0,21.7-0.4c12-0.6,23.9-0.4,35.9,0.3c1.9,0.1,3.4-1.7,3.5-3.5c0.7-17.5-0.1-35.1-2.1-52.5
	C254.6,82.1,255.2,81.6,255.9,80.9z M246.6,79.3c-0.2-0.6-0.4-1.2-0.7-1.8c0.4,0.2,0.7,0.5,1.1,0.7
	C246.8,78.5,246.7,78.9,246.6,79.3z"/>
<path class="st3" d="M124.1,112.1c2.3,0,6.4,2,6.4,4.3c0,2.4-4,4.3-6.4,4.3h-7.9l-6.8,11.9c-0.4,0.7-1.1,1.1-1.9,1.1h-3.8
	c-0.7,0-1.2-0.7-1-1.4l3.3-11.6h-7l-2.9,3.9c-0.2,0.3-0.5,0.4-0.9,0.4h-2.8c-0.5,0-1-0.4-1-1c0,0,0-0.1,0-0.2l2.1-7.5l-2.1-7.5
	c0-0.1,0-0.2,0-0.3c0-0.5,0.4-0.9,1-0.9h2.8c0.3,0,0.7,0.2,0.9,0.4l2.9,3.9h7l-3.3-11.6c-0.2-0.7,0.3-1.4,1-1.4h3.8
	c0.8,0,1.5,0.4,1.9,1.1l6.8,11.9H124.1z"/>
<path class="st3" d="M224.8,92.5c0.1-0.8,0.9-1.4,1.7-1.4c0.5,0,1,0.3,1.4,0.7l1.2,1.6h3.8c0.9,0,1.8,0.4,2.5,1l1.3,1.3h4
	c1,0,1.7,0.8,1.7,1.7v1.7c0,3.2-2.6,5.8-5.8,5.8h-5l-0.4,2.2l-8.1-4.6L224.8,92.5z M233.1,95.7c-0.6,0-1.2,0.5-1.2,1.2
	s0.5,1.2,1.2,1.2c0.6,0,1.2-0.5,1.2-1.2S233.8,95.7,233.1,95.7z M230.8,109.5v16.1c0,1.3-1,2.3-2.3,2.3h-2.3c-1.3,0-2.3-1-2.3-2.3
	v-8.3c-1.8,0.9-3.7,1.4-5.8,1.4s-4-0.5-5.8-1.4v8.3c0,1.3-1,2.3-2.3,2.3h-2.3c-1.3,0-2.3-1-2.3-2.3v-16.6c-2.1-0.8-3.7-2.5-4.3-4.8
	l-0.3-1.1c-0.3-1.2,0.4-2.5,1.7-2.9c1.2-0.2,2.5,0.5,2.8,1.7l0.3,1.1c0.3,1,1.2,1.7,2.2,1.7h14.8L230.8,109.5z"/>
<path d="M46,17.2L26.1,0.4c-0.6-0.5-1.4-0.5-1.9,0L4,17.2c-0.6,0.5-0.7,1.3-0.3,2l20.1,30c0.3,0.4,0.7,0.7,1.2,0.7c0,0,0,0,0,0
	c0.5,0,1-0.3,1.2-0.7l19.9-30C46.7,18.6,46.6,17.7,46,17.2z"/>
</svg>
